<?xml version="1.0" encoding="UTF-8" standalone="no"?>
<!-- Created with Inkscape (http://www.inkscape.org/) -->

<svg
   xmlns:dc="http://purl.org/dc/elements/1.1/"
   xmlns:cc="http://creativecommons.org/ns#"
   xmlns:rdf="http://www.w3.org/1999/02/22-rdf-syntax-ns#"
   xmlns:svg="http://www.w3.org/2000/svg"
   xmlns="http://www.w3.org/2000/svg"
   xmlns:sodipodi="http://sodipodi.sourceforge.net/DTD/sodipodi-0.dtd"
   xmlns:inkscape="http://www.inkscape.org/namespaces/inkscape"
   width="182.5625mm"
   height="91.942711mm"
   viewBox="0 0 646.875 325.78126"
   id="svg2"
   version="1.1"
   inkscape:version="0.91 r13725"
   sodipodi:docname="Airspire2.svg">
  <defs
     id="defs4">
    <clipPath
       clipPathUnits="userSpaceOnUse"
       id="clipPath3627">
      <rect
         style="fill:#ffffff"
         id="rect3629"
         width="646.09375"
         height="322.65625"
         x="48.251518"
         y="63.282028" />
    </clipPath>
    <clipPath
       clipPathUnits="userSpaceOnUse"
       id="clipPath3633">
      <rect
         style="fill:#ffffff"
         id="rect3635"
         width="646.875"
         height="325.78125"
         x="48.251518"
         y="32.813278"
         ry="3.90625" />
    </clipPath>
  </defs>
  <sodipodi:namedview
     id="base"
     pagecolor="#ffffff"
     bordercolor="#666666"
     borderopacity="1.0"
     inkscape:pageopacity="0.0"
     inkscape:pageshadow="2"
     inkscape:zoom="1.28"
     inkscape:cx="291.62683"
     inkscape:cy="138.77115"
     inkscape:document-units="px"
     inkscape:current-layer="g3563"
     showgrid="false"
     inkscape:window-width="1366"
     inkscape:window-height="705"
     inkscape:window-x="-8"
     inkscape:window-y="-8"
     inkscape:window-maximized="1"
     fit-margin-top="0"
     fit-margin-left="0"
     fit-margin-right="0"
     fit-margin-bottom="0" />
  <metadata
     id="metadata7">
    <rdf:RDF>
      <cc:Work
         rdf:about="">
        <dc:format>image/svg+xml</dc:format>
        <dc:type
           rdf:resource="http://purl.org/dc/dcmitype/StillImage" />
        <dc:title></dc:title>
      </cc:Work>
    </rdf:RDF>
  </metadata>
  <g
     inkscape:label="Laag 1"
     inkscape:groupmode="layer"
     id="layer1"
     transform="translate(-48.251518,-32.813278)">
    <g
       id="g3495">
      <path
         inkscape:connector-curvature="0"
         id="path3375"
         d=""
         style="fill:#ffffff" />
      <g
         id="g3563">
        <path
           inkscape:connector-curvature="0"
           id="path3349"
           d="m 12.314018,220.35817 0,-205.423832 358.551462,0 358.55143,0 0,205.423832 0,205.42385 -358.55143,0 -358.551462,0 0,-205.42385 z m 386.802272,81.95008 c 0.0762,-38.78609 0.20511,-45.13035 0.99278,-48.84075 3.03732,-14.30788 10.34049,-21.739 21.35278,-21.7268 7.54611,0.008 13.88607,3.47358 17.93216,9.80114 3.45461,5.40254 4.88835,10.82059 4.55302,17.20556 -0.53374,10.16138 -5.76641,19.36372 -12.8561,22.60897 -3.72754,1.70623 -4.90305,1.92416 -10.32936,1.91455 -7.52336,-0.0141 -11.55314,-1.30967 -15.35473,-4.93998 l -1.87564,-1.79106 -0.3805,0.87257 c -0.71519,1.64007 -1.19114,5.48303 -0.95374,7.70087 0.99894,9.33261 7.62873,16.27417 17.15028,17.95685 4.5707,0.80774 11.44938,0.55131 15.24516,-0.5684 3.72411,-1.09853 9.25483,-4.00229 12.52077,-6.57353 11.42624,-8.99599 17.64612,-22.37127 17.70396,-38.07057 0.0315,-8.50642 -1.47156,-15.63527 -4.82164,-22.87069 -5.14794,-11.11853 -13.89068,-18.83634 -24.92483,-22.00283 -3.11725,-0.89454 -4.01857,-0.99048 -9.23195,-0.98275 -5.17183,0.008 -6.14184,0.1122 -9.25389,0.99723 -5.62352,1.59944 -10.5147,4.34717 -15.92273,8.94511 l -1.43463,1.21982 0,-4.65866 0,-4.65866 -3.06379,0.23667 c -6.05979,0.46807 -9.58047,2.03466 -13.23811,5.89045 -1.88807,1.99023 -2.7142,3.20619 -3.50148,5.15334 l -1.03042,2.54848 -0.0932,53.69372 -0.0932,53.69372 10.42262,-0.097 10.42257,-0.097 0.0639,-32.56046 z m 90.97456,27.61236 c 5.36978,-0.66402 7.4087,-2.26731 8.24667,-6.48476 0.48716,-2.45183 0.25031,-4.69237 -0.7022,-6.64322 -1.46799,-3.00654 -4.24301,-4.14603 -9.69271,-3.98 l -3.45414,0.10516 -0.0938,8.87714 -0.0938,8.87721 1.31928,-0.18098 c 0.72562,-0.0995 2.73739,-0.35631 4.47063,-0.57061 z m -2.41359,-3.13043 c -0.11699,-0.31834 -0.21253,-2.776 -0.21253,-5.4616 0,-5.73269 0.23006,-6.2633 2.5479,-5.87603 3.2608,0.54478 4.59249,2.24202 4.61338,5.8798 0.0152,2.64244 -0.95168,4.55447 -2.75535,5.44878 -1.56396,0.77539 -3.91007,0.7805 -4.1934,0.01 z m -73.03412,3.11885 c 3.42176,-0.44593 4.39397,-0.98125 5.13153,-2.82562 0.77383,-1.93504 0.39493,-3.67181 -1.11967,-5.13279 l -1.25545,-1.21099 1.06823,-1.27126 c 1.2231,-1.45546 1.38314,-2.95392 0.48516,-4.54217 -0.89267,-1.57895 -2.02116,-1.94549 -6.50739,-2.11396 l -4.11424,-0.15438 0,8.81886 0,8.81894 1.67237,0 c 0.91985,0 3.00761,-0.17405 4.63946,-0.38663 z m -2.36136,-2.44979 c -0.43253,-0.30622 -0.73142,-4.30739 -0.3514,-4.70449 0.5074,-0.53012 2.82485,-0.17785 3.50504,0.53288 0.8431,0.88084 0.94719,2.77679 0.19557,3.56217 -0.62057,0.64835 -2.74765,1.03544 -3.34921,0.60944 z m -0.45656,-7.15365 c -0.004,-0.0386 -0.061,-1.26811 -0.126,-2.73159 -0.13247,-2.97363 -0.38685,-2.80311 2.58465,-1.73175 1.06511,0.38402 1.22551,0.59872 1.22551,1.6403 0,1.0942 -0.15988,1.2722 -1.83827,2.04607 -1.01106,0.46626 -1.84168,0.81588 -1.84585,0.77697 z m 49.15244,8.64314 c 1.90554,-1.39931 2.898,-3.00891 3.39373,-5.50398 0.81347,-4.09412 -0.77176,-8.16854 -3.83559,-9.85855 -1.94349,-1.07207 -5.15252,-1.14727 -7.21349,-0.16902 -6.23999,2.96196 -5.9751,13.88494 0.39685,16.3634 2.17011,0.84414 5.49509,0.4631 7.2585,-0.83185 z m -6.30319,-2.26409 c -2.54632,-1.66975 -2.69116,-8.25958 -0.22613,-10.2855 1.17044,-0.96195 3.23264,-0.96502 4.39899,-0.008 1.01928,0.83768 2.00977,3.54477 1.99846,5.46208 -0.008,1.47082 -0.99187,3.98274 -1.84889,4.7237 -0.99,0.85604 -3.10003,0.90777 -4.32243,0.10615 z m 24.69308,3.38239 1.09423,-0.22872 0,-8.36875 0,-8.36883 -1.3915,0 -1.39146,0 -0.0967,5.57919 -0.0966,5.5792 -1.71579,-3.29259 c -4.20636,-8.07199 -4.71506,-8.64394 -7.13335,-8.0197 l -1.30515,0.33685 -0.094,8.32308 -0.094,8.32298 1.75729,0 1.75733,0 0.007,-5.94503 0.007,-5.94502 2.79272,5.48775 c 2.5093,4.93078 3.74207,6.76822 4.54107,6.76822 0.14719,0 0.76,-0.1029 1.36181,-0.22863 z m -46.17574,-1.60062 0,-1.46341 -3.32641,0 -3.3264,0 0,-2.19509 0,-2.19509 2.97626,0 2.97626,0 0,-1.46342 0,-1.46342 -2.97626,0 -2.97626,0 0,-1.81492 0,-1.81506 3.0638,-0.10572 3.06379,-0.10573 0.10868,-1.37189 0.10868,-1.37198 -4.92319,0 -4.92321,0 0,8.4145 0,8.41451 5.07715,0 5.07714,0 0,-1.46333 z m 10.22776,-2.1624 0.16711,-3.62566 2.50581,-4.58865 c 1.37821,-2.52374 2.50583,-4.6604 2.50583,-4.74804 0,-0.0877 -0.56452,-0.27015 -1.25448,-0.40538 -1.8402,-0.36072 -2.64956,0.39364 -3.96717,3.69726 -0.62947,1.57825 -1.25661,2.99346 -1.39369,3.14484 -0.13712,0.15136 -0.76788,-1.05025 -1.40183,-2.67024 -1.47051,-3.75791 -2.19227,-4.50674 -4.0498,-4.20171 -0.76308,0.12529 -1.44933,0.29251 -1.52501,0.37158 -0.0756,0.0791 0.67345,1.61188 1.66467,3.4064 2.70104,4.88998 3.28721,6.69536 3.32036,10.22691 l 0.0283,3.01803 1.61638,2.4e-4 1.6164,1.5e-4 0.16709,-3.62573 z m 99.01824,2.6548 c 0,-0.19201 -2.5823,-4.77956 -3.20649,-5.69537 -0.41852,-0.61423 -0.82057,-1.86523 -0.90004,-2.80097 -0.12444,-1.46539 0.0263,-1.9596 1.12961,-3.70323 0.70026,-1.10665 1.57087,-2.60881 1.93471,-3.33811 l 0.66151,-1.32584 -1.45345,-0.20375 c -0.79937,-0.11205 -1.75352,-0.0362 -2.12031,0.16926 -0.36678,0.20508 -1.18217,1.55194 -1.81194,2.99298 l -1.14506,2.62008 -1.11998,-2.46618 c -1.20896,-2.66212 -2.12377,-3.58502 -3.51366,-3.54462 -2.13979,0.0622 -2.14831,0.28433 -0.15322,3.99867 1.03897,1.93424 1.87292,3.95188 1.88059,4.54973 0.008,0.6478 -0.75094,2.48532 -1.91208,4.62811 -1.05922,1.95455 -1.92581,3.65252 -1.92581,3.77325 0,0.12064 0.76853,0.21943 1.70787,0.21943 2.00165,0 2.23247,-0.22274 3.74956,-3.6181 l 1.08055,-2.41845 1.44507,2.9833 c 0.79478,1.64078 1.64786,3.06396 1.89571,3.16265 0.39021,0.1553 3.77649,0.17074 3.77686,0.0173 z m 40.21491,-0.1624 c 0.94543,-0.34433 1.10269,-0.57912 1.10269,-1.6463 l 0,-1.24469 -2.26888,0 c -2.65614,0 -4.81201,-0.79185 -5.60701,-2.05955 -0.79997,-1.27574 -1.02555,-4.06442 -0.46957,-5.80618 0.64993,-2.03614 2.69677,-3.10971 5.92887,-3.10971 l 2.33712,0 0.17722,-1.18902 c 0.0976,-0.65394 0.0287,-1.35363 -0.15282,-1.55485 -0.18155,-0.20116 -1.77972,-0.36584 -3.55146,-0.36584 -2.89906,0 -3.38855,0.10262 -4.89237,1.0263 -2.0194,1.24022 -3.23354,3.13697 -3.70092,5.7816 -0.82173,4.64969 1.21562,8.82414 4.89113,10.02198 1.88669,0.61479 4.73529,0.68198 6.206,0.14626 z m 29.43976,-0.20406 c 0.15981,-0.14358 -0.0724,-0.97646 -2.86175,-10.27 -1.7552,-5.84744 -1.7999,-5.94297 -2.97197,-6.34716 -1.18367,-0.40814 -3.41707,-0.20359 -3.74007,0.34251 -0.24536,0.41476 -4.75738,15.77996 -4.75738,16.20062 0,0.19469 0.74791,0.30385 1.66196,0.24248 1.66006,-0.11135 1.66277,-0.11374 2.42424,-2.11435 0.87621,-2.30219 1.82222,-2.81075 3.89016,-2.09128 0.94818,0.32992 1.44184,0.8306 2.0338,2.06284 0.9971,2.07594 1.69164,2.60118 3.07598,2.32647 0.6022,-0.11952 1.16241,-0.27802 1.24503,-0.35213 z m -8.99684,-7.53438 c 0.0864,-0.25156 0.44874,-1.65086 0.80527,-3.10972 0.35647,-1.45884 0.75116,-2.65243 0.87688,-2.65243 0.22705,0 1.73726,5.06104 1.73726,5.822 0,0.23414 -0.73479,0.39742 -1.78822,0.39742 -1.2809,0 -1.74366,-0.12966 -1.63119,-0.45727 z m 39.6932,7.6014 c 1.87302,-0.58116 3.49374,-2.08435 4.54723,-4.2173 1.01573,-2.05671 0.90545,-6.31063 -0.22296,-8.60298 -1.32147,-2.68409 -3.24175,-3.95999 -6.22531,-4.13617 -5.15456,-0.30432 -8.54615,3.12231 -8.57707,8.66566 -0.0362,6.44941 4.59736,10.11547 10.47811,8.29079 z m -4.49348,-2.94093 c -2.5738,-1.51241 -3.06708,-7.21849 -0.8563,-9.904 1.12541,-1.36701 3.54779,-1.62496 4.88742,-0.52044 1.25422,1.03411 2.0065,2.94669 1.99677,5.07695 -0.008,1.80184 -0.912,4.30015 -1.84889,5.11011 -0.87288,0.75466 -3.0848,0.88029 -4.179,0.23738 z m 25.3224,3.11381 c 0.18595,0 0.32148,-3.54841 0.32148,-8.41452 l 0,-8.41451 -1.3915,0 -1.39141,0 -0.0967,5.57919 -0.0966,5.5792 -2.75413,-5.23266 c -1.51481,-2.878 -3.13477,-5.49318 -3.59994,-5.81168 -0.65956,-0.45153 -1.17108,-0.50736 -2.32302,-0.25368 l -1.47719,0.32543 -0.0942,8.34189 -0.0942,8.34198 1.66986,-0.11178 1.6698,-0.11177 0.17503,-5.80492 0.17511,-5.80491 2.73254,5.47932 c 1.71186,3.4327 3.01968,5.62503 3.50143,5.86959 1.20878,0.6136 1.78294,0.7638 2.28579,0.59785 0.25644,-0.0846 0.61094,-0.15397 0.78779,-0.15397 z m -136.6527,-1.37198 -0.10868,-1.3719 -3.3264,-0.18295 -3.3264,-0.18289 -0.10587,-1.71466 c -0.1305,-2.11396 0.43934,-2.54248 3.14148,-2.3626 2.51168,0.1672 2.74179,0.03 2.74179,-1.63251 l 0,-1.42427 -2.80117,0 -2.80119,0 0,-1.82925 0,-1.82926 2.97626,0 2.97626,0 0,-1.46334 0,-1.46342 -4.90207,0 -4.90207,0 0,8.41451 0,8.41452 5.27337,0 5.27329,0 -0.10868,-1.37198 z m 21.42541,-1.73774 0,-3.10971 1.83828,-0.008 c 3.73815,-0.0166 6.21113,-2.17517 6.21382,-5.42444 0.004,-3.94998 -2.08283,-5.54295 -7.25864,-5.54295 -1.75298,0 -3.43643,0.0999 -3.74107,0.22202 -0.48275,0.19358 -0.55387,1.2977 -0.55387,8.59746 l 0,8.37537 1.75074,0 1.75074,0 0,-3.10972 z m -0.0577,-8.1153 c -0.12966,-2.70032 0.21984,-3.40892 1.68138,-3.40892 3.06506,0 3.80708,4.10397 0.96626,5.34418 -2.2597,0.98645 -2.5163,0.79892 -2.64764,-1.93526 z m 21.06655,9.7616 0,-1.46341 -3.28742,0 -3.28743,0 -0.23278,-1.29646 c -0.36728,-2.04553 -0.0148,-2.65646 1.68721,-2.92313 0.8234,-0.12895 1.97618,-0.15563 2.56166,-0.0591 1.47924,0.2436 1.92961,-0.16075 1.79691,-1.61306 l -0.11346,-1.2421 -2.88873,-0.10629 -2.88871,-0.10628 0,-1.8002 0,-1.80026 3.0638,-0.10573 3.06379,-0.10572 0.10868,-1.3719 0.10868,-1.37198 -4.92319,0 -4.92321,0 0,8.41452 0,8.41451 5.07714,0 5.07714,0 0,-1.46335 z m 24.51032,-5.48767 0,-6.95118 2.10088,0 2.10097,0 0,-1.46334 0,-1.46342 -6.12763,0 -6.12759,0 0,1.46342 0,1.46334 2.27596,0 2.27598,0 0,6.95118 0,6.95109 1.75076,0 1.75067,0 0,-6.95109 z m 25.56081,0 0,-6.95118 2.10089,0 2.10088,0 0,-1.46334 0,-1.46342 -6.14979,0 -6.14971,0 0.10967,1.17737 c 0.11586,1.24265 -0.0483,1.15556 3.69877,1.96007 0.78273,0.16807 0.78778,0.21272 0.78778,6.93038 l 0,6.76121 1.75074,0 1.75076,0 0,-6.95109 z m 10.15428,-1.46343 0,-8.41451 -1.57564,0 -1.57564,0 0,8.41451 0,8.41452 1.57564,0 1.57564,0 0,-8.41452 z m -299.02628,4.77082 0,-3.27787 2.88873,-0.10629 2.88871,-0.10628 0,-1.46342 0,-1.46333 -2.71365,-0.10685 -2.71364,-0.10685 0,-1.99678 0,-1.99676 2.97625,0 2.97626,0 0,-1.46342 0,-1.46334 -4.727,0 -4.72699,0 0,8.41452 0,8.4145 1.57566,0 1.57567,0 0,-3.27786 z m 19.60828,1.81445 0,-1.46342 -3.3264,0 -3.32641,0 0,-6.95109 0,-6.9511 -1.57566,0 -1.57567,0 0,8.41452 0,8.4145 4.90207,0 4.90207,0 0,-1.46341 z m 7.4062,1.00606 c 0.0293,-0.25147 0.0838,-1.78901 0.12134,-3.41664 0.0422,-1.83066 0.27365,-3.36552 0.60688,-4.02433 0.29626,-0.58573 1.42343,-2.71127 2.50481,-4.72341 1.08138,-2.01212 1.96615,-3.78191 1.96615,-3.93289 0,-0.1509 -0.78422,-0.2744 -1.74268,-0.2744 -2.0223,0 -2.15843,0.15674 -3.72957,4.29416 -0.55303,1.45634 -1.09055,2.64993 -1.19449,2.65245 -0.10389,0 -0.79111,-1.48123 -1.52699,-3.29701 -0.73591,-1.81586 -1.60495,-3.45081 -1.93125,-3.63322 -0.32629,-0.18249 -1.2561,-0.23887 -2.06629,-0.12529 l -1.47304,0.20642 2.07123,4.06703 c 2.57068,5.04781 3.33941,7.66803 3.09063,10.53454 l -0.18484,2.12996 1.71753,0 c 1.11228,0 1.73624,-0.16115 1.77062,-0.45736 z m 277.19402,-24.42672 c 9.58736,-0.88667 17.18019,-3.89494 23.52927,-9.32221 3.15,-2.69268 8.53922,-9.31583 8.01775,-9.85351 -0.0763,-0.0787 -3.7853,-1.97314 -8.24215,-4.20981 -7.3915,-3.70954 -8.18365,-4.0286 -9.01629,-3.6322 -0.50217,0.23903 -0.9129,0.55226 -0.9129,0.69607 0,0.4624 -5.17251,4.01449 -7.25885,4.98488 -4.59042,2.13499 -12.26986,2.91872 -16.87904,1.72253 -4.68329,-1.2154 -8.66427,-4.15366 -12.01584,-8.86839 -3.90598,-5.49461 -6.11157,-14.56991 -5.19737,-21.38513 1.53163,-11.41861 8.88196,-20.38506 19.11531,-23.31843 3.54303,-1.01567 8.56763,-1.10066 11.55625,-0.19548 4.36535,1.3222 9.83272,5.80719 11.17703,9.16886 1.14154,2.85446 0.44745,6.52831 -1.60142,8.47743 -2.58911,2.46303 -6.4409,3.40073 -15.12453,3.68197 -9.0619,0.29354 -12.40767,-0.37425 -16.89187,-3.37142 l -1.91109,-1.2773 -0.34394,0.9451 c -1.45233,3.99133 -1.35765,8.33905 0.25922,11.90242 2.59379,5.71624 8.19684,8.81877 17.86674,9.89343 6.36657,0.70758 14.0638,-0.63227 20.75081,-3.61203 4.28002,-1.90715 6.94571,-3.77648 9.68016,-6.78806 9.03278,-9.94849 8.53145,-25.1665 -1.19054,-36.13792 -6.98454,-7.88225 -17.7144,-12.03929 -29.84859,-11.56423 -13.80593,0.54045 -23.75368,4.71207 -31.35458,13.14847 -6.48061,7.19304 -10.39458,15.33316 -11.9022,24.75381 -0.77397,4.8361 -0.53732,14.25022 0.48334,19.22903 1.91909,9.36111 5.69302,16.78397 11.5578,22.73286 9.34508,9.47909 21.2223,13.538 35.69752,12.19926 z M 342.26401,303.0222 c 9.60223,-1.75498 17.42594,-7.22376 20.91005,-14.61621 1.76615,-3.74734 2.53472,-7.48468 2.55797,-12.43885 0.0228,-4.86358 -0.46191,-7.19579 -2.27621,-10.9514 -3.09841,-6.4138 -7.21103,-9.82713 -20.95229,-17.38986 -11.20562,-6.16712 -11.92484,-6.66488 -12.75261,-8.82649 -1.02055,-2.66496 0.1547,-4.99324 3.10204,-6.14547 2.80672,-1.0972 4.9234,-1.27354 7.76892,-0.64725 4.4467,0.97874 7.73029,3.23699 9.94136,6.83713 l 1.10602,1.8009 1.29609,-0.69087 c 4.42922,-2.36096 7.25622,-8.34236 6.36522,-13.46768 -0.54713,-3.1472 -2.53823,-7.08608 -4.48888,-8.88005 -2.04807,-1.88366 -6.41533,-4.08466 -9.88711,-4.9829 -3.984,-1.03088 -12.1191,-0.94621 -16.06161,0.16713 -9.64696,2.7241 -15.83956,8.44899 -18.46685,17.07221 -1.20136,3.94306 -1.25398,9.38514 -0.1274,13.17824 1.19164,4.0122 3.03304,7.32812 5.56955,10.0293 2.70299,2.87847 4.91257,4.42688 14.35352,10.05852 13.03781,7.77735 15.78324,10.2662 15.78324,14.30835 0,5.39387 -7.51241,7.92069 -15.20209,5.11316 -3.27387,-1.19523 -5.79355,-2.84995 -8.83286,-5.80049 -2.15306,-2.09018 -2.67276,-2.43476 -3.1061,-2.059 -0.74654,0.64741 -12.23246,13.53281 -12.3424,13.84626 -0.16884,0.48139 3.55534,4.54723 6.1015,6.66135 4.61517,3.83193 10.7302,6.72166 16.55782,7.82461 3.59891,0.6811 9.35449,0.68079 13.08313,0 z m 160.40334,-1.02008 c 1.50655,-7.87343 1.93513,-30.55667 0.78568,-41.58353 -2.8935,-27.75704 -11.20734,-52.1918 -25.20689,-74.08429 -19.12607,-29.90944 -48.96175,-52.9741 -83.92073,-64.87549 -5.80853,-1.9774 -15.02487,-4.60763 -15.26525,-4.35646 -0.0802,0.0838 0.5249,0.35842 1.34463,0.61038 3.12987,0.96203 13.2773,5.34519 18.64762,8.05474 45.74293,23.07916 75.73653,63.45768 83.30732,112.15147 2.67465,17.2028 2.20132,37.53745 -1.26823,54.48138 -1.05576,5.15603 -1.56082,9.30079 -1.23975,10.17454 0.13332,0.36283 2.63851,0.46507 11.39392,0.46507 l 11.22306,0 0.19859,-1.03781 z M 98.037296,301.48508 c 0.43505,-0.38963 2.522874,-5.58094 5.333634,-13.26204 2.5403,-6.94196 6.18881,-16.81981 8.10783,-21.95087 1.91901,-5.13105 8.02894,-21.51185 13.57761,-36.4019 12.09665,-32.4617 11.22389,-30.1825 11.55763,-30.1825 0.14935,0 0.67142,1.11129 1.16016,2.46948 0.48873,1.3582 4.44539,11.93582 8.79256,23.50573 4.3472,11.56997 7.90474,21.20863 7.90568,21.41938 7.5e-4,0.2555 -2.76681,0.39018 -8.31433,0.40443 -11.27335,0.0291 -16.10433,0.85532 -21.79671,3.72829 -2.86313,1.44498 -6.96993,5.83799 -8.39301,8.97795 -4.35491,9.6088 0.16323,20.20792 10.31632,24.20091 1.26195,0.49626 2.38755,0.90235 2.5013,0.90235 0.11375,0 0.10178,-0.73191 -0.0266,-1.62645 -0.2739,-1.90841 0.21903,-4.11571 1.21428,-5.43767 0.95468,-1.26809 4.67241,-3.05198 8.16878,-3.91959 4.06908,-1.00968 11.60511,-1.48855 19.0637,-1.21114 6.02752,0.22414 6.44431,0.28573 7.00898,1.03575 0.3302,0.4386 2.70105,6.62723 5.26857,13.75254 2.81294,7.80649 4.9481,13.20958 5.37251,13.59535 0.6429,0.58437 1.76239,0.63794 12.8332,0.61447 6.67085,-0.0142 12.38799,-0.13754 12.70473,-0.27432 0.59385,-0.25643 1.09525,1.13413 -29.96887,-83.11336 -3.15323,-8.5517 -7.88243,-21.39292 -10.50935,-28.53618 -8.2372,-22.39885 -10.06331,-27.14548 -10.69903,-27.80966 -0.7541,-0.78789 -3.79671,-1.21524 -8.48108,-1.19122 -6.37517,0.0331 -11.71267,2.07419 -15.90134,6.08175 -4.07165,3.89573 -5.99625,7.61905 -10.94077,21.1661 -1.12302,3.07696 -2.83547,7.73467 -3.80538,10.35049 -3.35338,9.04372 -10.204874,27.54179 -19.851724,53.59676 -5.32677,14.38703 -10.45875,28.21613 -11.40443,30.73129 -6.133814,16.31416 -6.911563,18.62014 -6.334323,18.78113 0.311779,0.087 6.024833,0.1772 12.695723,0.20051 11.08086,0.0386 12.1906,-0.0127 12.84374,-0.59776 z m 168.746744,0.40961 0.78783,-0.22059 0.0245,-15.23148 c 0.0374,-23.23983 0.47131,-37.83564 1.19788,-40.29213 1.3979,-4.72608 4.0032,-8.31433 8.0055,-11.02599 6.43639,-4.36079 12.27219,-4.00544 16.90194,1.02899 1.08245,1.17712 2.03314,1.93611 2.16766,1.73055 0.13176,-0.20138 0.75806,-1.13844 1.39176,-2.0823 1.67107,-2.48917 2.23995,-4.4301 2.27451,-7.76072 0.0536,-5.16114 -2.11125,-9.9826 -5.93244,-13.2125 -2.67051,-2.2573 -5.17943,-3.1331 -9.57434,-3.34197 -3.30862,-0.15729 -3.95306,-0.078 -6.4397,0.79618 -4.66119,1.63793 -8.44052,4.85547 -11.085,9.43702 -0.66451,1.1513 -1.32638,2.0979 -1.47082,2.10365 -0.14444,0.008 -0.26261,-2.29447 -0.26261,-5.11153 l 0,-5.12183 -9.10384,0 -9.10385,0 0,43.8836 c 0,41.40798 0.0346,43.90463 0.61276,44.25653 0.65996,0.40159 18.23488,0.5491 19.60828,0.16452 z m 274.62721,-26.47634 c 0.17903,-23.88399 0.26023,-26.74017 0.81585,-28.69606 1.50017,-5.28062 4.4524,-9.36798 8.60907,-11.9192 2.94422,-1.80704 5.4788,-2.55872 8.56,-2.53871 3.97736,0.026 6.73264,1.42104 8.46669,4.28738 0.52277,0.86414 1.11025,1.51564 1.30536,1.44768 0.72508,-0.25251 3.02089,-4.57195 3.54272,-6.66544 0.67767,-2.71829 0.68221,-4.58116 0.0179,-7.2466 -1.9848,-7.96141 -7.9123,-12.69252 -15.90241,-12.69252 -3.46965,0 -5.87093,0.6225 -8.95565,2.32149 -2.51951,1.38773 -5.90862,4.76711 -7.66972,7.64795 -0.70734,1.15696 -1.43878,2.10357 -1.62545,2.10357 -0.20233,0 -0.33939,-1.99457 -0.33939,-4.93897 l 0,-4.93888 -8.88794,0 -8.88789,0 -0.21115,0.8231 c -0.11614,0.45278 -0.21329,20.01245 -0.21593,43.46602 -0.004,33.55408 0.0885,42.77186 0.43291,43.24779 0.55149,0.76216 2.24173,0.87414 12.69285,0.84099 l 8.05341,-0.0252 0.19882,-26.52399 z m -307.80374,-17.73662 0,-44.07776 -1.66319,0.20022 c -8.53241,1.02685 -11.73733,2.32716 -14.9565,6.0682 -1.82658,2.12271 -2.59999,3.54068 -3.55754,6.52233 -0.60758,1.89194 -0.65254,4.15405 -0.75262,37.86525 -0.0586,19.71923 -0.0184,36.22361 0.089,36.6763 l 0.19546,0.82319 10.32269,0 10.32269,0 0,-44.07773 z m 31.70036,-54.47706 c 1.98468,-0.94936 3.35324,-2.2262 4.27576,-3.98922 0.54216,-1.03606 0.62677,-2.53886 0.72008,-12.7897 l 0.10572,-11.61567 -2.42377,0 -2.42375,0 -0.15606,5.9585 c -0.17174,6.55745 -0.57108,8.09356 -2.48384,9.55454 -1.32051,1.00858 -4.4677,0.98716 -5.7943,-0.0394 -2.56623,-1.9859 -3.31367,-5.65087 -1.74657,-8.56415 1.42119,-2.64204 4.89473,-3.61613 7.65273,-2.14603 l 1.38665,0.73915 0,-1.4167 c 0,-1.67181 -1.1689,-3.68544 -2.53903,-4.37395 -1.491,-0.74923 -4.49835,-0.62361 -6.43364,0.2688 -4.67222,2.15438 -6.96718,7.5566 -5.5923,13.1639 1.62876,6.64275 7.63299,9.72718 13.29798,6.83131 1.10608,-0.56542 2.07129,-0.96511 2.1449,-0.88825 0.33529,0.35032 -0.54939,3.023 -1.26355,3.81729 -1.77498,1.97408 -5.86696,2.05945 -10.07929,0.21028 -2.06152,-0.90502 -2.56777,-1.01395 -2.72479,-0.58644 -0.3134,0.85335 0.19793,2.93361 0.97467,3.96534 2.23929,2.97449 8.85191,3.93362 13.10238,1.90038 z m -46.87558,-8.10388 c 5.11129,-2.60952 7.36365,-9.13288 4.98483,-14.43712 -1.9479,-4.34338 -4.67559,-6.26337 -9.25521,-6.51453 -2.35148,-0.12895 -3.12193,-0.0204 -4.61883,0.65276 -1.49466,0.6718 -3.37078,2.13309 -2.86369,2.23052 0.078,0.0149 1.48113,0.34662 3.11806,0.73702 1.63695,0.39033 3.55056,0.84673 4.25247,1.0141 3.15995,0.75365 4.88619,2.66788 5.12557,5.68402 0.41152,5.18493 -4.00396,8.37867 -8.36785,6.05254 -1.63051,-0.8691 -2.7409,-2.9744 -2.75323,-5.21998 -0.01,-1.90887 1.50571,-3.53894 3.29178,-3.53894 0.68884,0 1.25245,-0.17729 1.25245,-0.39396 0,-0.65929 -1.95237,-2.47995 -2.93588,-2.73781 -1.30856,-0.34323 -3.75781,0.1243 -4.63643,0.88486 -2.55815,2.21453 -2.72083,7.76215 -0.34304,11.69772 2.8538,4.72341 8.81287,6.40884 13.749,3.8888 z m 24.23392,0.008 c 1.01961,-0.57981 2.2484,-1.54422 2.73068,-2.14303 l 0.87685,-1.08883 -0.81828,-0.6548 c -1.65087,-1.3211 -2.53032,-1.41144 -4.49276,-0.46145 -4.83034,2.33827 -8.89077,-0.26542 -8.89384,-5.70308 -0.003,-3.78664 2.17096,-6.2447 5.76053,-6.51594 1.91199,-0.14453 2.12542,-0.079 3.11711,0.95715 1.27503,1.3322 1.38772,2.71985 0.28635,3.52587 -0.58177,0.42578 -1.68649,0.56951 -4.37685,0.56951 -3.51135,0 -3.59863,0.0204 -3.59863,0.83327 0,4.34599 8.96838,4.86209 12.31336,0.70859 2.3271,-2.88966 1.17715,-7.64276 -2.37531,-9.818 -1.38582,-0.84854 -2.16627,-1.04213 -4.71501,-1.1694 -2.74255,-0.13712 -3.26322,-0.0528 -5.10156,0.82578 -2.48571,1.18785 -3.77822,2.41647 -4.8498,4.61014 -3.11255,6.37175 -0.76301,13.60141 5.22704,16.08397 2.63797,1.09324 6.4213,0.85555 8.91012,-0.55975 z m -65.43251,-4.81018 0,-5.36859 0.78783,0.77112 c 1.11547,1.09183 2.47664,1.55155 4.59352,1.55155 7.55034,0 11.77122,-10.90391 6.64369,-17.16287 -2.0856,-2.54588 -3.308,-2.94141 -9.11984,-2.95071 -5.50288,-0.008 -6.50867,0.25856 -7.34784,1.95409 -0.73755,1.49028 -0.96452,7.94337 -0.64195,18.25093 l 0.26048,8.32307 2.41206,0 2.41205,0 0,-5.36859 z m 0,-13.34379 0,-4.81018 3.21826,0.21783 c 3.73034,0.2525 4.74555,0.81343 5.48963,3.03325 0.59472,1.77435 0.0754,4.17641 -1.18813,5.49664 -0.76341,0.79767 -1.12212,0.87258 -4.17744,0.87258 l -3.34232,0 0,-4.81012 z m 22.40139,4.39529 0.0218,-14.31716 -1.26941,0.21525 c -1.64047,0.27817 -2.89138,1.1483 -3.31184,2.30385 -0.18908,0.51956 -0.33452,6.39639 -0.33452,13.51721 l 0,12.59794 2.4361,0 2.4361,0 0.0218,-14.31709 z M 355.8464,166.76089 c 0.92368,-0.2681 2.59263,-1.74019 6.21512,-5.48209 2.7238,-2.81358 4.95234,-5.18178 4.95234,-5.26267 0,-0.0808 -1.55598,-0.26336 -3.45774,-0.4056 l -3.45773,-0.25857 -3.14687,2.59708 c -1.73078,1.42845 -3.34506,2.59715 -3.5873,2.59715 -0.40819,0 -14.00972,-4.61283 -46.57579,-15.79571 l -13.13054,-4.50886 4.02669,-0.0812 c 6.17948,-0.12472 17.02997,-1.18657 19.95844,-1.95322 3.54453,-0.92801 12.07105,-3.85358 17.91745,-6.14783 2.63279,-1.03314 5.06639,-1.87847 5.40797,-1.87847 0.59716,0 5.41661,1.18746 23.94454,5.89983 8.04504,2.04606 8.75286,2.16688 11.37981,1.94258 3.18385,-0.27187 4.47451,-0.90164 4.31078,-2.10349 -0.16205,-1.18934 -0.95192,-1.43751 -25.18311,-7.91188 -5.31718,-1.42073 -9.77809,-2.58312 -9.91314,-2.58312 -0.13501,0 -0.13923,-0.74081 -0.01,-1.6463 0.22881,-1.59423 0.20733,-1.64629 -0.67884,-1.64629 -0.50333,0 -0.91514,-0.16445 -0.91514,-0.36537 0,-0.20091 1.3997,-2.95849 3.11042,-6.12798 5.99326,-11.10357 14.54094,-26.999212 15.51746,-28.856902 l 0.98573,-1.87509 -2.96626,-0.77727 c -1.63142,-0.42758 -3.32645,-0.7753 -3.76673,-0.77278 -0.49385,0 -1.60534,0.81059 -2.9014,2.10861 -6.54222,6.55225 -16.46098,15.906202 -22.37125,21.097342 l -2.05894,1.80846 -0.81111,-0.98526 c -0.71439,-0.86777 -1.06369,-0.98527 -2.92881,-0.98527 -1.16473,0 -2.11207,0.12346 -2.10522,0.27439 0.007,0.15089 0.23015,1.22619 0.49619,2.38946 0.47004,2.05529 0.46162,2.13019 -0.29766,2.65 -2.4935,1.70709 -11.14428,2.89943 -20.86973,2.87651 -6.8751,-0.0158 -10.8353,-0.33843 -37.81596,-3.07672 -1.82952,-0.18571 -5.45356,-0.53178 -8.0534,-0.76916 -2.59985,-0.23729 -4.94969,-0.61227 -5.22187,-0.83319 -0.27217,-0.22083 -2.16298,-2.63873 -4.20178,-5.37308 -2.0388,-2.73435 -5.60722,-7.508702 -7.92981,-10.609592 -2.3226,-3.10098 -4.33204,-5.82893 -4.46541,-6.06221 -0.13331,-0.2333 0.62457,-2.69758 1.68434,-5.47619 1.05975,-2.77861 1.92684,-5.09837 1.92684,-5.15507 0,-0.0567 -1.29994,-0.10165 -2.88873,-0.1001 l -2.88872,0 -3.73654,5.23864 -3.73654,5.23864 3.48996,10.16823 c 1.91947,5.592582 3.40571,10.256292 3.30274,10.363872 -0.1029,0.10756 -5.66439,-0.24848 -12.35874,-0.79129 -23.82312,-1.93164 -27.25202,-1.90061 -35.7016,0.32315 -4.67692,1.23084 -7.13362,2.30472 -12.18501,5.32622 -6.19883,3.70788 -7.31408,5.00685 -6.35583,7.40308 0.97114,2.42853 8.39887,7.31631 13.70894,9.0212 3.97605,1.27652 16.78976,2.74631 41.6676,4.77931 13.19151,1.07806 27.17175,2.47121 27.42199,2.7327 0.0667,0.0701 -0.46406,0.41727 -1.17972,0.77207 -2.09784,1.04008 -3.53499,5.41939 -2.59889,7.91919 1.16309,3.10602 1.51372,3.59495 3.44469,4.80359 2.43631,1.525 3.68235,1.70165 12.08064,1.71252 7.56954,0.01 8.95364,-0.35528 10.36032,-2.73348 0.67918,-1.14815 0.9562,-1.32882 1.89434,-1.23548 0.9836,0.098 1.08868,0.0149 1.00217,-0.79177 -0.0531,-0.49562 -0.40767,-1.24706 -0.78783,-1.66984 -0.38015,-0.42285 -0.6912,-0.88478 -0.6912,-1.02655 0,-0.41009 1.86401,0.16422 2.54712,0.78468 0.5637,0.51216 0.70885,0.4961 1.56597,-0.17248 l 0.94467,-0.73695 3.68625,1.19201 c 2.02742,0.65551 9.59499,3.02702 16.81679,5.26999 20.81159,6.46358 45.80539,14.26495 48.67057,15.19162 2.87021,0.92826 7.28653,1.17918 9.49125,0.53935 z"
           style="fill:#124eb8"
           clip-path="url(#clipPath3633)" />
        <path
           style="fill:#ffffff"
           d="m 75.631868,293.15896 c 27.592752,-74.70375 41.721772,-112.3638 43.909952,-117.03929 4.50744,-9.63108 12.26447,-14.69232 22.54262,-14.70843 2.16262,-0.003 4.78255,0.61575 5.82207,1.37586 1.60531,1.17383 48.71733,126.60114 51.04425,135.89613 l 0.76062,3.03835 -12.1874,0 -12.18741,0 -4.11428,-10.77233 c -2.26285,-5.92478 -4.7834,-12.43941 -5.60123,-14.47696 l -1.48696,-3.70462 -13.54327,0.39006 c -15.55548,0.44801 -20.98611,2.43222 -21.62685,7.90186 -0.40959,3.49641 -1.82567,3.72102 -6.02058,0.95489 -9.92786,-6.54641 -10.84038,-19.05534 -1.97439,-27.06523 5.29069,-4.77981 9.61349,-6.09447 23.42361,-7.1236 l 10.65962,-0.79436 -8.97543,-24.00226 c -4.93648,-13.20124 -9.35636,-23.62131 -9.82196,-23.15571 -0.46559,0.46559 -8.32316,20.9617 -17.46126,45.54691 -9.1381,24.58521 -17.65204,47.3106 -18.919864,50.50087 l -2.305142,5.80048 -12.549712,0 -12.549713,0 3.162709,-8.56262 z"
           id="path3355"
           inkscape:connector-curvature="0" />
        <path
           style="fill:#ffffff"
           d="m 345.3126,165.32659 c -2.73451,-0.77284 -18.8535,-5.75562 -35.81995,-11.07285 -33.21952,-10.41087 -37.57972,-11.37358 -36.72598,-8.10889 0.28794,1.10109 0.0374,2.00198 -0.55681,2.00198 -0.59418,0 -1.82611,0.74577 -2.73762,1.65728 -1.19602,1.19602 -4.10932,1.65728 -10.46742,1.65728 -7.88083,0 -9.09619,-0.28606 -11.52205,-2.71192 -3.31305,-3.31305 -3.42917,-6.02193 -0.42201,-9.84491 2.02724,-2.57722 2.07459,-2.91113 0.41278,-2.91113 -2.23379,0 -33.80678,-2.83757 -50.21142,-4.51267 -14.95519,-1.52709 -19.26867,-2.66321 -25.74483,-6.78087 -6.91878,-4.39908 -6.63778,-6.71759 1.39796,-11.53462 10.33299,-6.1941 18.43184,-7.36833 40.09817,-5.81372 10.20608,0.73232 18.84628,1.04171 19.20044,0.68755 0.35417,-0.35417 -0.84725,-5.09015 -2.6698,-10.524415 l -3.31375,-9.880477 3.46979,-5.063403 c 2.35954,-3.443239 4.26522,-5.074803 5.95571,-5.09903 2.95796,-0.04239 2.92553,-0.25277 0.75992,4.930261 -0.9493,2.271991 -1.46861,4.801634 -1.15402,5.621429 0.31458,0.819794 4.11686,6.20669 8.44949,11.970879 9.02404,12.005676 5.01423,10.476776 35.31014,13.463376 17.28656,1.70413 36.69858,1.61839 42.81311,-0.1891 1.72198,-0.50903 2.48592,-1.58651 2.48592,-3.50624 0,-2.45424 0.35845,-2.69969 3.1324,-2.1449 2.79937,0.55988 4.49248,-0.65887 15.92429,-11.46286 11.96186,-11.304917 15.1043,-13.265349 18.02304,-11.243787 0.7485,0.518426 -2.34103,7.398741 -8.55056,19.041817 -5.34738,10.02656 -9.23077,18.39583 -8.62973,18.59838 0.60103,0.20256 1.09279,0.99393 1.09279,1.75861 0,1.45999 0.53084,1.64202 21.26845,7.29299 7.14012,1.94567 12.98204,3.97815 12.98204,4.51662 0,1.97016 -9.7458,0.83776 -24.03895,-2.79318 l -14.64767,-3.721 -12.42126,4.37598 c -10.2498,3.61099 -14.41003,4.48872 -23.79759,5.02085 -6.25698,0.35468 -10.98023,1.02396 -10.49612,1.48728 0.48413,0.46332 14.06749,5.30234 30.18528,10.75337 l 29.30503,9.91096 3.28817,-2.63086 c 1.84233,-1.47406 4.74559,-2.6228 6.60272,-2.61252 l 3.31456,0.0183 -5.71834,5.50044 c -6.15673,5.92213 -7.49616,6.252 -15.82632,3.89768 z"
           id="path3357"
           inkscape:connector-curvature="0" />
        <path
           style="fill:#ffffff"
           d="m 253.05113,201.17306 c -2.66307,-2.94266 -1.83761,-3.48622 3.18728,-2.09878 3.35139,0.92536 4.68389,0.80701 6.84322,-0.60784 3.16271,-2.07229 3.77613,-5.71713 0.74796,-4.44429 -5.02987,2.11423 -6.85939,1.84934 -10.18312,-1.47439 -6.71812,-6.71812 -2.86607,-18.5129 5.77307,-17.67684 2.42115,0.2343 3.68731,0.99879 3.95014,2.38502 0.30717,1.62012 -0.0853,1.89035 -1.90606,1.31245 -3.30521,-1.04903 -8.2713,4.05652 -7.2349,7.43809 1.19954,3.91383 2.736,5.22967 6.10651,5.22967 3.99308,0 5.42786,-2.60929 5.42786,-9.87106 0,-4.96046 0.26552,-5.5969 2.33502,-5.5969 2.25737,0 2.32059,0.38991 1.901,11.7249 -0.39515,10.67466 -0.66475,11.91173 -3.00985,13.81068 -3.56798,2.88917 -11.27054,2.81694 -13.93813,-0.13071 z"
           id="path3359"
           inkscape:connector-curvature="0" />
        <path
           style="fill:#ffffff"
           d="m 246.98056,258.07983 0,-43.64174 8.7783,0 8.7783,0 0.33675,5.18306 0.33675,5.18307 2.74316,-4.01934 c 7.62049,-11.16571 23.91782,-11.45111 29.10983,-0.50977 2.64236,5.56836 2.21819,12.34384 -1.00854,16.10981 -0.18952,0.22119 -1.68078,-0.64888 -3.3139,-1.9335 -4.42967,-3.48437 -11.17228,-3.14061 -16.68184,0.8505 -7.73248,5.60137 -8.24842,7.85274 -8.92435,38.94235 l -0.5974,27.47731 -9.77853,0 -9.77853,0 0,-43.64175 z"
           id="path3361"
           inkscape:connector-curvature="0" />
        <path
           style="fill:#ffffff"
           d="m 213.08209,299.94042 c -0.37592,-0.97963 -0.40941,-17.87822 -0.0744,-37.5524 0.54706,-32.12906 0.81705,-36.12639 2.65166,-39.25918 2.79324,-4.76976 6.68636,-7.38861 12.26249,-8.2488 l 4.69563,-0.72437 0,43.78295 0,43.78296 -9.42594,0 c -7.65075,0 -9.55466,-0.33544 -10.10943,-1.78116 z"
           id="path3363"
           inkscape:connector-curvature="0" />
        <path
           style="fill:#ffffff"
           d="m 326.53008,301.85815 c -7.83519,-2.57606 -18.78253,-9.98991 -18.78253,-12.72006 0,-0.73619 2.53107,-4.17831 5.62459,-7.64916 l 5.62458,-6.31064 4.16007,3.29484 c 7.65067,6.05944 16.87914,7.53289 21.05096,3.36107 5.21035,-5.21035 1.86915,-9.73939 -14.49185,-19.64392 -17.46524,-10.573 -22.31386,-19.16865 -18.52043,-32.83301 3.88628,-13.99879 25.58045,-21.58427 39.4448,-13.79207 8.22585,4.62319 10.57433,14.34396 5.05119,20.90783 l -2.87939,3.42197 -4.23624,-3.82719 c -2.32993,-2.10496 -6.01434,-4.16076 -8.18756,-4.56846 -7.31199,-1.37174 -13.33224,3.14219 -10.71293,8.03244 0.58188,1.08638 5.89255,4.70974 11.80148,8.05193 19.45296,11.00291 24.47513,17.58268 23.51818,30.81226 -1.03091,14.25224 -11.43337,23.41554 -27.29018,24.03935 -4.62694,0.18202 -9.65557,-0.0777 -11.17474,-0.57718 z"
           id="path3365"
           inkscape:connector-curvature="0" />
        <path
           style="fill:#ffffff"
           d="m 378.70436,280.45313 0.3063,-54.41407 2.65283,-3.71953 c 2.75726,-3.86594 9.89265,-7.81517 14.1962,-7.85718 2.16772,-0.0212 2.48592,0.54144 2.48592,4.39515 0,2.43068 0.2529,4.41942 0.56199,4.41942 0.3091,0 2.59872,-1.47539 5.08806,-3.27866 15.13017,-10.96024 32.76476,-9.98637 46.01053,2.54092 22.69441,21.46344 17.30852,63.3139 -9.89772,76.90901 -5.51573,2.75625 -8.10109,3.37378 -14.04176,3.35398 -13.67312,-0.0456 -22.12044,-6.73868 -23.07799,-18.28553 -0.27353,-3.29835 -0.12155,-5.997 0.33772,-5.997 0.45928,0 2.62493,1.10621 4.81257,2.45824 3.18157,1.96632 5.65549,2.46379 12.36262,2.48593 10.77993,0.0356 15.9972,-3.0089 20.20978,-11.79317 6.01617,-12.54522 4.49624,-25.02437 -4.0942,-33.61481 -10.75197,-10.75197 -25.87672,-8.53138 -33.09099,4.85836 -4.26218,7.91063 -5.13708,17.83295 -5.16098,58.53118 l -0.0196,33.42184 -9.97377,0 -9.97377,0 0.30629,-54.41408 z"
           id="path3367"
           inkscape:connector-curvature="0" />
        <path
           style="fill:#ffffff"
           d="m 378.70436,280.25693 c 0.298,-53.13095 0.36791,-54.69475 2.58069,-57.72864 2.58396,-3.54281 10.75251,-8.0902 14.53253,-8.0902 2.2128,0 2.52803,0.55107 2.52803,4.41941 0,2.43068 0.28177,4.41942 0.62615,4.41942 0.34438,0 2.20882,-1.18617 4.1432,-2.63594 15.60983,-11.69913 33.263,-10.99081 46.87277,1.88075 22.79658,21.56006 17.43933,63.2752 -9.87926,76.92646 -14.35753,7.17454 -31.64199,2.81422 -36.16499,-9.12329 -1.16848,-3.08396 -1.6561,-11.80526 -0.66005,-11.80526 0.28513,0 2.55286,1.06042 5.03942,2.35648 3.21024,1.67327 6.66363,2.38461 11.9112,2.45351 10.76461,0.14132 17.09864,-3.77907 21.15931,-13.0964 5.19006,-11.90872 3.37849,-23.79016 -4.88764,-32.05629 -11.04005,-11.04005 -26.34771,-8.54071 -33.17652,5.41686 -3.95969,8.09333 -4.89433,19.3428 -4.94417,59.50885 l -0.0394,31.76456 -9.97377,0 -9.97377,0 0.30629,-54.61028 z"
           id="path3369"
           inkscape:connector-curvature="0" />
        <path
           style="fill:#ffffff"
           d="m 480.10502,301.44537 c 1.1e-4,-0.75959 0.82816,-5.35855 1.84013,-10.21991 2.71214,-13.02884 2.68362,-46.48086 -0.0504,-59.1097 -10.04102,-46.38095 -37.72034,-82.93368 -79.66832,-105.20831 -10.13209,-5.38021 -7.69217,-5.29821 4.90339,0.16478 50.2404,21.79046 84.5697,66.09416 94.01234,121.3277 2.17296,12.71044 2.99152,40.99017 1.45547,50.2833 l -0.68483,4.14321 -10.90399,0 c -7.98671,0 -10.90393,-0.3695 -10.90379,-1.38107 z"
           id="path3371"
           inkscape:connector-curvature="0" />
        <path
           style="fill:#ffffff"
           d="m 521.72101,300.98501 c -0.40511,-0.40511 -0.73657,-20.0439 -0.73657,-43.64175 l 0,-42.90517 8.28641,0 8.28641,0 0,4.41941 c 0,2.43068 0.43817,4.41942 0.97372,4.41942 0.53555,0 2.30139,-1.74067 3.9241,-3.86815 4.30435,-5.64329 8.62604,-7.52362 15.90474,-6.92001 5.24737,0.43515 6.57248,1.0436 9.69619,4.45215 4.65173,5.07592 5.75669,10.60844 3.2354,16.19966 l -1.89346,4.19894 -2.61187,-2.61188 c -4.9319,-4.93189 -14.85572,-3.01488 -20.76835,4.01188 -4.50669,5.3559 -5.13318,9.90167 -5.13975,37.29421 l -0.006,25.68786 -9.20712,0 c -5.06391,0 -9.53857,-0.33146 -9.94369,-0.73657 z"
           id="path3373"
           inkscape:connector-curvature="0" />
        <path
           style="fill:#ffffff"
           d="m 613.70435,300.2986 c -18.41038,-7.75488 -27.41948,-23.64845 -26.23178,-46.27724 0.87933,-16.75339 9.7125,-30.63943 23.94977,-37.64985 6.89035,-3.3928 7.96347,-3.5907 19.47039,-3.5907 10.05334,0 13.05537,0.4059 17.2061,2.32644 11.77224,5.44701 18.69579,15.53603 18.71559,27.27242 0.0133,7.89183 -2.62089,13.44532 -8.94539,18.85886 -9.22364,7.89508 -26.21793,10.29652 -36.75791,5.1942 -6.07012,-2.93849 -8.42377,-6.78543 -8.42377,-13.76828 l 0,-4.9727 4.69564,2.13143 c 8.0035,3.63292 25.69284,2.56957 30.07,-1.80759 0.93214,-0.93215 1.69456,-3.59594 1.69456,-5.92061 0,-8.29925 -11.85031,-14.98138 -21.91657,-12.35828 -7.45892,1.94366 -13.27331,6.48516 -17.1911,13.4276 -3.03858,5.38447 -3.41616,7.02065 -3.31451,14.36311 0.34443,24.87858 21.06807,35.22608 41.54229,20.74242 1.54844,-1.09537 3.26297,-0.66357 9.66748,2.43473 4.28187,2.07144 7.78522,4.09526 7.78522,4.49739 0,0.40212 -2.73413,3.31697 -6.07585,6.47743 -8.87164,8.39043 -14.13048,10.41638 -28.17463,10.85421 -10.18556,0.31754 -12.3531,0.0449 -17.76553,-2.23499 z"
           id="path3377"
           inkscape:connector-curvature="0" />
        <path
           style="fill:#ffffff"
           d="m 609.65639,328.88027 c -0.47248,-0.13685 -1.1917,-1.01045 -1.83342,-2.22693 -0.41654,-0.78962 -0.7116,-1.21661 -1.05251,-1.52312 -0.61594,-0.55379 -1.52234,-0.8735 -2.48625,-0.87697 -0.62346,-0.002 -0.74568,0.0298 -1.12305,0.29426 -0.51565,0.36139 -0.91072,1.00102 -1.4555,2.35651 -0.47812,1.18964 -0.74356,1.54982 -1.24474,1.68902 -0.43398,0.12053 -2.35742,0.13184 -2.54187,0.0149 -0.10707,-0.0679 -0.0834,-0.2605 0.12891,-1.04831 0.64126,-2.37979 3.51964,-12.19078 4.16534,-14.1976 0.18071,-0.56166 0.38816,-1.00995 0.52574,-1.13609 0.43971,-0.40314 2.16677,-0.55038 3.22522,-0.27496 1.41892,0.36921 1.42627,0.38507 3.70322,7.99207 1.83422,6.12792 2.29617,7.73597 2.36462,8.23123 0.0561,0.40617 0.0547,0.40841 -0.32213,0.50829 -1.20783,0.32013 -1.52528,0.35068 -2.05358,0.19766 z m -3.39602,-7.52431 c 0.24723,-0.12009 0.28144,-0.18474 0.25275,-0.47753 -0.0731,-0.74634 -1.07913,-4.22659 -1.54178,-5.33386 -0.17891,-0.4282 -0.2621,-0.36435 -0.53565,0.41108 -0.25027,0.70945 -1.35618,4.97176 -1.35618,5.22688 0,0.12086 0.0918,0.20387 0.26855,0.24286 0.14771,0.0326 0.3125,0.0768 0.36621,0.0984 0.23979,0.0962 2.2794,-0.0383 2.5461,-0.16782 z"
           id="path3379"
           inkscape:connector-curvature="0" />
        <path
           style="fill:#ffffff"
           d="m 615.97013,322.65274 c 0,-6.2454 -0.0397,-7.03712 -0.36817,-7.35094 -0.0965,-0.0922 -0.7065,-0.2743 -1.42317,-0.42484 -1.61353,-0.33892 -2.21105,-0.54591 -2.42195,-0.83899 -0.10833,-0.15055 -0.20047,-0.54689 -0.25362,-1.09094 l -0.0835,-0.8545 6.08378,0 6.08379,0 0,1.41602 0,1.41602 -2.09961,0 -2.09961,0 0,6.93359 0,6.93359 -1.70898,0 -1.70899,0 0,-6.13901 z"
           id="path3381"
           inkscape:connector-curvature="0" />
        <path
           style="fill:#ffffff"
           d="m 590.48185,321.85816 0,-6.93359 -2.29492,0 -2.29492,0 0,-1.41602 0,-1.41602 6.10351,0 6.10352,0 0,1.41602 0,1.41602 -2.09961,0 -2.09961,0 0,6.93359 0,6.93359 -1.70899,0 -1.70898,0 0,-6.93359 z"
           id="path3383"
           inkscape:connector-curvature="0" />
        <path
           style="fill:#ffffff"
           d="m 590.48185,321.85816 0,-6.93359 -2.29492,0 -2.29492,0 0,-1.41602 0,-1.41602 6.10351,0 6.10352,0 0,1.41602 0,1.41602 -2.09961,0 -2.09961,0 0,6.93359 0,6.93359 -1.70899,0 -1.70898,0 0,-6.93359 z"
           id="path3385"
           inkscape:connector-curvature="0" />
        <path
           style="fill:#ffffff"
           d="m 577.8674,328.93861 c -2.79081,-0.4697 -4.73526,-2.03539 -5.7769,-4.65165 -0.40916,-1.02767 -0.5607,-1.79997 -0.62029,-3.16122 -0.16474,-3.76347 1.24051,-6.70463 3.98409,-8.3386 1.30794,-0.77895 1.50035,-0.81997 4.06586,-0.86677 2.69232,-0.0491 3.88151,0.0638 4.16258,0.39539 0.16224,0.19137 0.17609,0.32288 0.12054,1.14396 -0.0345,0.51026 -0.0884,1.04434 -0.11966,1.18687 l -0.0569,0.25913 -2.11444,0.0433 c -1.72121,0.0352 -2.24158,0.0793 -2.79804,0.2372 -2.67725,0.75957 -3.7828,2.45316 -3.62227,5.54894 0.13067,2.52002 0.72662,3.64102 2.34015,4.40188 1.28794,0.60732 2.56596,0.82273 4.88123,0.82273 l 1.45579,0 -0.045,1.00098 c -0.028,0.62317 -0.0973,1.08492 -0.1837,1.22339 -0.18488,0.29637 -0.79328,0.58074 -1.61487,0.7548 -0.82942,0.17572 -3.01335,0.17557 -4.05825,-2.9e-4 l 0,1e-5 z"
           id="path3387"
           inkscape:connector-curvature="0" />
        <path
           style="fill:#ffffff"
           d="m 559.32951,320.44214 0,-8.34961 4.84569,0 4.84569,0 -0.0669,1.14746 c -0.0368,0.63111 -0.0872,1.21859 -0.11187,1.30552 -0.0388,0.13643 -0.32191,0.16668 -2.0688,0.22101 -1.11312,0.0346 -2.4743,0.0896 -3.02484,0.12217 l -1.00097,0.0592 0,1.83045 0,1.83045 2.07519,0.0636 c 1.14136,0.035 2.43421,0.0899 2.873,0.1219 l 0.79781,0.0583 0.0687,0.82418 c 0.0837,1.00436 0.0169,1.47144 -0.24814,1.73608 -0.19052,0.19023 -0.29274,0.19941 -1.88301,0.16917 -3.11716,-0.0593 -3.97523,0.33319 -3.97611,1.81862 -2e-4,0.33812 0.0723,1.05223 0.16109,1.58691 l 0.16145,0.97215 3.30534,0 3.30535,0 0,1.41602 0,1.41601 -5.0293,0 -5.02929,0 0,-8.34961 z"
           id="path3389"
           inkscape:connector-curvature="0" />
        <path
           style="fill:#ffffff"
           d="m 544.99856,320.75953 c 0.0377,-8.67217 0.0377,-8.67183 0.54288,-8.88456 0.17348,-0.0731 1.20772,-0.11293 3.04588,-0.11742 2.33535,-0.006 2.91493,0.0216 3.60182,0.16968 1.64786,0.35529 2.67229,0.94166 3.35677,1.92141 0.9961,1.42578 1.12832,4.00861 0.29412,5.74524 -0.38742,0.80652 -1.36783,1.75655 -2.27224,2.20181 -1.14273,0.5626 -1.6174,0.66027 -3.49121,0.7184 l -1.68457,0.0523 0,3.1127 0,3.1127 -1.71419,0 -1.71419,0 0.0349,-8.03222 z m 5.68837,-1.05273 c 1.7625,-0.73928 2.50213,-2.23423 1.90069,-3.84172 -0.22118,-0.59116 -0.85127,-1.24946 -1.42559,-1.48943 -0.61257,-0.25594 -1.50249,-0.28379 -2.00239,-0.0627 -0.73843,0.32664 -0.81681,0.59689 -0.81466,2.80884 0.002,1.90365 0.0803,2.4234 0.42543,2.8177 0.22818,0.26072 0.9487,0.17323 1.91652,-0.23273 z"
           id="path3391"
           inkscape:connector-curvature="0" />
        <path
           style="fill:#ffffff"
           d="m 661.47794,328.75908 c -1.11437,-0.46338 -1.21853,-0.56329 -2.10601,-2.02 -0.74307,-1.21968 -2.77674,-5.11939 -3.98814,-7.64755 -0.53196,-1.11019 -1.00437,-2.01853 -1.04981,-2.01853 -0.0454,0 -0.0834,0.23072 -0.0845,0.5127 -10e-4,0.28198 -0.0661,2.46826 -0.14459,4.8584 -0.0785,2.39013 -0.14355,4.74713 -0.14459,5.23777 l -0.002,0.89207 -0.51269,0.0577 c -0.28198,0.0318 -1.03307,0.087 -1.66908,0.12273 l -1.15638,0.065 0.058,-2.28433 c 0.0319,-1.25638 0.085,-4.99173 0.11812,-8.30077 l 0.0601,-6.01643 0.98943,-0.21012 c 1.70412,-0.36189 2.3712,-0.26484 2.98503,0.43427 0.76285,0.86884 2.16169,3.26641 4.49667,7.70715 0.819,1.55762 1.52109,2.86686 1.56018,2.90943 0.0884,0.0962 0.19867,-2.22253 0.19914,-4.18751 2e-4,-0.81036 0.0294,-2.66705 0.0649,-4.12597 l 0.0645,-2.65259 1.35149,0 1.3515,0 -0.003,5.39551 c -0.003,5.19724 -0.11584,10.25905 -0.24447,10.94471 -0.0564,0.3006 -0.10411,0.33896 -0.54942,0.44175 -0.69864,0.16127 -1.03623,0.13757 -1.64463,-0.11542 z"
           id="path3393"
           inkscape:connector-curvature="0" />
        <path
           style="fill:#ffffff"
           d="m 60.768187,285.26242 c 0.448196,-2.17706 43.842823,-119.1604 45.836723,-123.56675 2.32089,-5.12897 6.00228,-9.57535 9.74293,-11.76752 4.33002,-2.53756 11.50621,-3.93293 16.42954,-3.19463 3.4422,0.51619 3.84219,0.81274 5.15458,3.8216 1.47817,3.38893 40.57222,109.28171 46.56949,126.14124 2.537,7.13206 3.1566,9.69686 2.41159,9.98275 -0.55144,0.21161 -6.22007,0.28704 -12.59698,0.16761 l -11.59436,-0.21711 -2.65003,-7.03125 c -1.45753,-3.86719 -3.91398,-10.32345 -5.4588,-14.34725 l -2.80876,-7.31598 -12.60001,0.37085 c -17.01956,0.50094 -21.87069,2.29695 -22.85654,8.46209 -0.4447,2.78101 -0.56871,2.88635 -2.57474,2.18704 -6.41602,-2.23664 -11.26052,-9.32311 -11.20019,-16.3835 0.0432,-5.05851 1.52845,-8.44914 5.53099,-12.62671 4.31,-4.49849 9.49357,-6.07517 22.74369,-6.91796 6.20096,-0.39441 11.35577,-0.79986 11.45513,-0.90097 0.27895,-0.28389 -15.78916,-43.06838 -17.12603,-45.60144 l -1.18151,-2.23867 -0.9173,2.34375 c -0.50452,1.28906 -7.93676,21.15234 -16.51609,44.14062 -20.051284,53.72729 -20.201078,54.11884 -21.146223,55.27344 -0.57697,0.70484 -4.167542,0.97656 -12.904193,0.97656 l -12.104791,0 0.361884,-1.75781 z"
           id="path3354"
           inkscape:connector-curvature="0"
           transform="translate(12.314018,14.934338)" />
        <path
           style="fill:#ffffff"
           d="m 160.1715,172.48267 c -0.61756,-8.23709 0.0199,-17.24577 1.33216,-18.82697 1.02236,-1.23187 10.98308,-1.38747 13.19057,-0.20606 2.21858,1.18735 3.86297,4.91146 3.86297,8.74859 0,6.97011 -6.19412,11.66327 -11.66172,8.83586 l -2.40078,-1.24148 0,5.09818 c 0,4.86452 -0.0862,5.09819 -1.88021,5.09819 -1.81661,0 -1.89925,-0.25392 -2.44299,-7.50631 z m 11.96187,-6.20986 c 1.21053,-0.84789 1.73633,-2.01391 1.73633,-3.85045 0,-3.21923 -1.71964,-5.08963 -4.6794,-5.08963 -1.22323,0 -2.78015,-0.21339 -3.45982,-0.47421 -1.05543,-0.405 -1.23578,0.33609 -1.23578,5.07813 l 0,5.55233 2.95117,0 c 1.62314,0 3.73252,-0.54728 4.6875,-1.21617 z"
           id="path3356"
           inkscape:connector-curvature="0"
           transform="translate(12.314018,14.934338)" />
        <path
           style="fill:#ffffff"
           d="m 182.61632,167.53607 c 0.36082,-12.51958 0.91155,-14.89084 3.45842,-14.89084 0.87312,0 1.07621,2.58004 1.07621,13.67188 l 0,13.67187 -2.44676,0 -2.44677,0 0.3589,-12.45291 z"
           id="path3358"
           inkscape:connector-curvature="0"
           transform="translate(12.314018,14.934338)" />
        <path
           style="fill:#ffffff"
           d="m 195.893,179.23412 c -5.59115,-3.50918 -6.52346,-12.93685 -1.46441,-14.80843 1.61428,-0.5972 5.22236,0.39833 5.22236,1.44094 0,0.25882 -0.79101,0.81763 -1.75781,1.24178 -1.27655,0.56006 -1.82273,1.54877 -1.99494,3.61129 -0.1927,2.30791 0.15642,3.14966 1.86317,4.49218 2.51391,1.97745 4.06469,2.07392 6.45256,0.40139 2.52237,-1.76673 3.47355,-4.68764 2.49353,-7.65714 -0.97377,-2.95055 -2.30065,-3.83568 -7.67464,-5.11959 -3.72668,-0.89034 -3.99595,-1.09212 -2.73437,-2.04898 0.76966,-0.58376 3.07446,-1.07257 5.12179,-1.08623 3.16703,-0.0211 4.15781,0.37416 6.64062,2.6495 2.80157,2.56744 2.91822,2.87913 2.91822,7.79747 0,4.70735 -0.20017,5.32331 -2.46648,7.58962 -3.27138,3.27137 -8.75528,3.92155 -12.6196,1.4962 z"
           id="path3360"
           inkscape:connector-curvature="0"
           transform="translate(12.314018,14.934338)" />
        <path
           style="fill:#ffffff"
           d="m 335.97908,151.46229 c -9.87404,-3.51793 -69.78761,-21.39821 -72.28645,-21.57278 -3.08217,-0.21533 -3.47561,-0.0625 -3.33229,1.29484 0.0976,0.92411 -0.82577,2.31936 -2.311,3.49213 -2.11772,1.67219 -3.43914,1.99157 -9.18688,2.22037 -8.76208,0.34881 -12.8693,-0.75803 -14.90949,-4.01789 -1.91916,-3.06647 -1.5283,-6.99451 0.95948,-9.64263 0.95129,-1.0126 1.42617,-1.8411 1.05529,-1.8411 -3.02551,0 -54.12192,-4.95179 -60.53243,-5.86624 -8.77708,-1.25204 -13.91293,-3.26967 -18.94842,-7.44391 -3.80316,-3.15269 -3.71769,-4.82458 0.39063,-7.64097 12.57247,-8.618853 20.37772,-9.862012 49.22313,-7.839882 7.19967,0.504714 13.33826,0.669713 13.64131,0.366665 0.30305,-0.303048 -0.91812,-4.989029 -2.7137,-10.41329 l -3.2647,-9.862294 3.53005,-4.946914 c 3.1325,-4.389805 3.82508,-4.946913 6.14989,-4.946913 l 2.61984,0 -1.48744,3.91463 c -0.8181,2.153046 -1.48745,4.587908 -1.48745,5.410803 0,1.82981 15.11178,22.338342 17.00379,23.076232 0.74557,0.290774 9.79309,1.401912 20.10559,2.469195 14.47693,1.498276 21.9548,1.883036 32.8125,1.688302 16.36271,-0.293466 18.755,-0.948881 18.74245,-5.134852 -0.006,-2.023987 0.30817,-2.51806 1.60156,-2.51806 0.88501,0 2.01294,0.403823 2.5065,0.897385 1.28454,1.284539 2.71319,0.179193 16.21199,-12.543221 11.44141,-10.783355 11.78961,-11.036647 14.71296,-10.702641 1.64681,0.188157 3.17833,0.526227 3.40337,0.751266 0.22504,0.22504 -2.39996,5.615928 -5.83331,11.97975 -9.62023,17.831313 -12.87722,24.632829 -12.04666,25.156869 0.41512,0.26192 0.88655,1.17107 1.04761,2.02035 0.24593,1.29669 2.87313,2.24949 16.3954,5.94602 8.85641,2.42104 16.49967,4.64732 16.98503,4.94729 1.62084,1.00173 0.90904,1.9399 -1.86694,2.46067 -2.01459,0.37794 -7.12874,-0.57682 -19.13508,-3.57236 -9.01211,-2.24848 -17.17917,-3.90727 -18.14902,-3.6862 -0.96984,0.22107 -6.18587,1.9933 -11.59115,3.93829 -9.77441,3.51713 -17.89192,5.14821 -26.36155,5.29691 -10.23971,0.17977 -9.16718,0.74339 21.07536,11.07523 16.04707,5.4822 29.70382,9.94727 30.34835,9.92239 0.64454,-0.0249 2.38907,-1.08565 3.87675,-2.35725 2.14343,-1.83212 3.44068,-2.30928 6.25,-2.29888 l 3.54513,0.0131 -5.57158,5.45564 c -5.22844,5.11965 -5.78176,5.45184 -8.98437,5.39396 -1.87704,-0.0339 -3.76436,-0.18693 -4.19405,-0.34002 l 0,-1e-5 z"
           id="path3362"
           inkscape:connector-curvature="0"
           transform="translate(12.314018,14.934338)" />
        <path
           style="fill:#ffffff"
           d="m 467.6197,286.76624 c 0,-0.56938 0.78114,-5.05181 1.73585,-9.96094 1.53402,-7.88794 1.73647,-11.4236 1.74124,-30.41007 0.005,-19.52262 -0.1585,-22.2334 -1.78953,-29.6875 -7.76019,-35.46543 -25.83457,-65.19902 -52.85943,-86.95736 -10.02134,-8.06841 -16.34051,-12.14957 -28.90625,-18.66876 -5.58594,-2.89803 -9.7047,-5.27864 -9.1528,-5.29026 1.91452,-0.0403 19.34765,7.17326 26.73092,11.06084 47.14389,24.82307 76.54799,67.01839 84.74829,121.61507 1.2348,8.22118 1.65267,35.29595 0.68729,44.53212 l -0.50191,4.8021 -11.21684,0 c -8.79171,0 -11.21683,-0.22382 -11.21683,-1.03524 z"
           id="path3364"
           inkscape:connector-curvature="0"
           transform="translate(12.314018,14.934338)" />
        <path
           style="fill:#ffffff"
           d="m 219.66258,179.13875 c -8.24876,-6.48847 -4.29236,-19.46227 5.93508,-19.46227 3.22574,0 4.23672,0.37573 6.14464,2.28366 2.81489,2.81489 3.02314,6.1475 0.52584,8.41513 -2.34771,2.1318 -5.34028,2.75022 -8.30583,1.71643 -3.70749,-1.29244 -3.14203,-3.04022 0.98361,-3.04022 4.08625,0 5.72008,-1.42571 4.41926,-3.85631 -0.59946,-1.12011 -1.63637,-1.61244 -3.39601,-1.61244 -5.30866,0 -7.90874,4.39665 -5.71087,9.65689 1.38082,3.30479 3.98808,4.25046 8.17547,2.96531 2.23733,-0.68665 3.05668,-0.64877 3.88507,0.17962 0.87889,0.87889 0.70459,1.32133 -1.07065,2.71774 -2.88639,2.27043 -8.72223,2.2888 -11.58561,0.0365 z"
           id="path3366"
           inkscape:connector-curvature="0"
           transform="translate(12.314018,14.934338)" />
        <path
           style="fill:#ffffff"
           d="m 195.893,179.23412 c -7.39563,-4.64173 -5.61541,-17.60667 2.02928,-14.77872 2.20377,0.81523 2.1943,1.67754 -0.0291,2.65301 -2.65025,1.16273 -2.79759,5.27119 -0.27935,7.78943 2.4567,2.4567 4.46776,2.4885 7.22797,0.11426 1.60395,-1.37966 2.15294,-2.56505 2.15294,-4.64864 0,-3.82138 -2.0669,-5.82907 -7.57857,-7.36145 -4.10791,-1.1421 -4.45529,-1.39146 -3.20848,-2.30315 0.76901,-0.56231 3.09398,-1.02238 5.1666,-1.02238 3.20147,0 4.20742,0.40234 6.68661,2.67435 2.80157,2.56744 2.91822,2.87913 2.91822,7.79747 0,4.70735 -0.20017,5.32331 -2.46648,7.58962 -3.27138,3.27137 -8.75528,3.92155 -12.6196,1.4962 z"
           id="path3368"
           inkscape:connector-curvature="0"
           transform="translate(12.314018,14.934338)" />
        <path
           style="fill:#ffffff"
           d="m 182.59267,167.57623 c 0.3191,-12.53846 0.87706,-14.931 3.48207,-14.931 0.87312,0 1.07621,2.58004 1.07621,13.67188 l 0,13.67187 -2.43709,0 -2.43709,0 0.3159,-12.41275 z"
           id="path3370"
           inkscape:connector-curvature="0"
           transform="translate(12.314018,14.934338)" />
        <path
           style="fill:#ffffff"
           d="m 200.49066,259.09054 c 0.0321,-14.93164 0.30137,-32.10837 0.59827,-38.17053 0.50289,-10.2681 0.68473,-11.23119 2.65817,-14.07888 2.73005,-3.93946 6.04561,-5.85375 12.11381,-6.99409 l 4.88379,-0.91776 0,43.65485 0,43.65485 -10.15625,0 -10.15625,0 0.0585,-27.14844 z"
           id="path3372"
           inkscape:connector-curvature="0"
           transform="translate(12.314018,14.934338)" />
        <path
           style="fill:#ffffff"
           d="m 235.35086,286.52222 c -0.29901,-0.29901 -0.54366,-20.17256 -0.54366,-44.16345 l 0,-43.61979 8.59375,0 8.59375,0 0.0779,3.32031 c 0.0428,1.82618 0.33033,4.19922 0.63889,5.27344 l 0.56103,1.95313 1.26365,-2.40246 c 1.77461,-3.3739 6.87466,-7.77897 10.32434,-8.91747 1.60257,-0.5289 5.12195,-0.82103 7.82083,-0.64917 3.85791,0.24565 5.51328,0.77484 7.74244,2.4751 6.40755,4.88728 8.40586,15.30974 4.07176,21.23689 -1.11297,1.52206 -1.1443,1.52013 -2.95633,-0.18217 -2.81621,-2.64566 -7.44835,-4.31007 -10.28948,-3.69718 -6.07426,1.31033 -11.83366,6.01708 -14.27716,11.66771 -1.1631,2.68969 -1.41348,6.93396 -1.7974,30.46875 l -0.44607,27.34375 -9.41729,0.21813 c -5.1795,0.11997 -9.66193,-0.0265 -9.96093,-0.32552 z"
           id="path3374"
           inkscape:connector-curvature="0"
           transform="translate(12.314018,14.934338)" />
        <path
           style="fill:#ffffff"
           d="m 318.16551,287.76738 c -2.70919,-0.32829 -6.81943,-1.67955 -10.21809,-3.35926 -5.84681,-2.88965 -13.37592,-9.10266 -12.87002,-10.62033 0.15669,-0.47008 2.87966,-3.83515 6.05105,-7.47795 l 5.76616,-6.62328 3.10508,2.80525 c 3.98107,3.59666 10.31576,6.54229 14.09042,6.55204 3.76925,0.01 8.00588,-1.75222 9.09171,-3.78112 2.4801,-4.63411 -0.54325,-8.0846 -15.20423,-17.35226 -16.27904,-10.29049 -20.27673,-15.45721 -20.21359,-26.12461 0.0582,-9.83571 5.30846,-17.69684 14.68584,-21.98896 4.15122,-1.90006 5.75632,-2.19029 12.21483,-2.20865 6.84658,-0.0195 7.84843,0.18199 12.64722,2.5432 6.1937,3.04756 8.5506,6.24263 9.05035,12.26887 0.3867,4.6632 -1.61562,9.49599 -4.79842,11.58145 -1.86949,1.22494 -1.98706,1.18416 -3.93001,-1.36319 -3.01175,-3.94861 -8.21084,-6.17613 -13.40908,-5.74505 -4.89043,0.40555 -7.38628,2.19234 -7.38628,5.28785 0,2.77078 1.87484,4.34837 12.10938,10.18949 15.03506,8.58091 18.84913,11.76603 21.96297,18.34124 1.4671,3.09794 1.85147,5.21116 1.85752,10.21239 0.01,8.07191 -1.52873,12.54874 -6.03489,17.56067 -6.71293,7.4664 -16.74908,10.73434 -28.56792,9.30221 z"
           id="path3376"
           inkscape:connector-curvature="0"
           transform="translate(12.314018,14.934338)" />
        <path
           style="fill:#ffffff"
           d="m 366.07436,266.51242 c 0.0161,-50.10932 0.10383,-53.51113 1.45638,-56.48891 2.67066,-5.87974 9.88577,-10.50328 16.39054,-10.50328 2.44695,0 2.44842,0.003 2.44842,4.29688 0,2.36328 0.15894,4.29687 0.3532,4.29687 0.19426,0 2.58287,-1.55865 5.30802,-3.46367 10.12212,-7.07586 20.61898,-9.13555 30.7992,-6.0434 12.99038,3.9457 22.12786,13.39343 26.95136,27.86645 1.54923,4.64851 1.8226,7.05064 1.8226,16.01562 0,9.08205 -0.26612,11.36067 -1.91607,16.40625 -3.98434,12.1842 -14.22387,23.29989 -25.26804,27.43013 -9.60143,3.5907 -22.07424,1.89191 -28.18814,-3.8392 -3.35668,-3.14653 -5.93926,-9.20619 -5.94824,-13.95672 -0.012,-6.36743 0.4708,-6.93695 3.57239,-4.21372 3.38646,2.97336 7.03452,3.94476 14.83457,3.95015 5.33586,0.004 6.95651,-0.32594 10.54151,-2.14408 8.17619,-4.14656 12.98544,-14.27265 12.27636,-25.8484 -0.44232,-7.22078 -2.65968,-12.37307 -7.34064,-17.05678 -4.43208,-4.4347 -7.57714,-5.89809 -13.60247,-6.3292 -11.21744,-0.8026 -18.82003,5.84114 -22.33981,19.52229 -1.05199,4.08905 -1.32568,11.45403 -1.64122,44.16522 l -0.37869,39.25781 -10.07419,0 -10.0742,0 0.0172,-53.32031 z"
           id="path3378"
           inkscape:connector-curvature="0"
           transform="translate(12.314018,14.934338)" />
        <path
           style="fill:#ffffff"
           d="m 467.6197,286.91171 c 0,-0.48938 0.77753,-5.14758 1.72783,-10.35156 1.50923,-8.26474 1.72641,-12.13047 1.71664,-30.55554 -0.01,-18.86622 -0.19529,-21.94554 -1.75449,-29.15979 -10.14062,-46.91954 -37.91901,-82.84982 -81.73936,-105.72669 -5.60174,-2.92445 -9.69183,-5.32409 -9.08909,-5.33254 2.00931,-0.0282 19.11165,7.10951 27.20551,11.35423 46.19388,24.22582 76.27322,67.39431 84.14561,120.76193 1.25939,8.53754 1.71402,37.51105 0.71862,45.79817 l -0.49266,4.10156 -11.2193,0 c -7.87095,0 -11.21931,-0.26555 -11.21931,-0.88977 z"
           id="path3380"
           inkscape:connector-curvature="0"
           transform="translate(12.314018,14.934338)" />
        <path
           style="fill:#ffffff"
           d="m 510.39314,286.46066 -2.14844,-0.32546 0,-43.69811 0,-43.69811 8.59375,0 8.59375,0 0,4.6875 c 0,2.57813 0.29653,4.6875 0.65896,4.6875 0.36243,0 2.11092,-1.72194 3.88553,-3.82653 4.57216,-5.4223 8.93672,-7.36428 15.69308,-6.98251 4.38331,0.24768 5.84343,0.69596 8.25303,2.53386 3.39302,2.58798 6.65483,8.95488 6.64087,12.96268 -0.009,2.44917 -2.49816,9.375 -3.37002,9.375 -0.19041,0 -1.47525,-1.05469 -2.85519,-2.34375 -1.37995,-1.28906 -3.43862,-2.40692 -4.57481,-2.48414 -9.02685,-0.61343 -15.2645,3.14812 -18.91681,11.40759 -1.60996,3.64082 -1.72219,5.29235 -2.1103,31.05469 l -0.40992,27.20936 -7.89252,-0.11705 c -4.34089,-0.0644 -8.85932,-0.26352 -10.04096,-0.44252 z"
           id="path3382"
           inkscape:connector-curvature="0"
           transform="translate(12.314018,14.934338)" />
        <path
           style="fill:#ffffff"
           d="m 607.85408,287.72229 c -15.51042,-3.15018 -28.57061,-16.65734 -32.02782,-33.12393 -3.60286,-17.16035 0.5688,-32.99102 11.8431,-44.94237 8.40277,-8.90738 17.6471,-12.47951 32.29578,-12.47951 15.01439,0 26.67273,6.75504 32.35628,18.74776 2.10679,4.4455 2.40629,5.91021 2.3967,11.72099 -0.009,5.65578 -0.31759,7.2246 -2.07852,10.57824 -5.18213,9.86925 -16.71473,15.95333 -30.28114,15.97499 -11.86045,0.0189 -19.92322,-4.25277 -21.89889,-11.60215 -0.85437,-3.17819 -0.47149,-9.48233 0.5759,-9.48233 0.25625,0 2.07105,0.79102 4.03289,1.75781 3.13997,1.54739 4.73601,1.75319 13.3326,1.71917 11.5775,-0.0458 16.18389,-1.51171 17.91981,-5.70259 2.023,-4.88395 -0.33175,-9.48161 -7.1758,-14.01079 -2.83222,-1.87427 -3.94688,-2.1212 -9.51509,-2.10787 -5.29788,0.0127 -6.93207,0.34593 -10.2133,2.08267 -5.26561,2.78707 -10.00881,7.85692 -12.65566,13.52723 -1.93345,4.14199 -2.18174,5.55122 -2.13352,12.10937 0.0661,8.99604 1.90979,14.42394 6.77765,19.95412 7.86913,8.9398 20.62242,9.86015 31.85814,2.29906 2.22463,-1.49706 4.27312,-2.72248 4.55221,-2.72316 1.1324,-0.003 15.74181,7.34761 15.74181,7.92009 0,1.31029 -9.80508,11.01732 -13.04868,12.9182 -5.56221,3.25967 -12.41681,5.01087 -20.9357,5.34862 -4.29687,0.17036 -9.57031,-0.0473 -11.71875,-0.48362 z"
           id="path3384"
           inkscape:connector-curvature="0"
           transform="translate(12.314018,14.934338)" />
        <path
           style="fill:#ffffff"
           d="m 315.21514,305.05093 0,-8.28641 4.55752,0 4.55752,0 0,1.38107 0,1.38107 -2.90024,0 -2.90024,0 0,2.03405 0,2.03406 1.28151,0.17565 c 0.70483,0.0966 1.9478,0.17565 2.76214,0.17565 l 1.48062,0 0,1.37141 0,1.3714 -2.83119,0.0787 -2.83119,0.0787 -0.0778,3.24551 -0.0778,3.24551 -1.5104,0 -1.51041,0 0,-8.28641 z"
           id="path3386"
           inkscape:connector-curvature="0"
           transform="translate(12.314018,14.934338)" />
        <path
           style="fill:#ffffff"
           d="m 328.19718,305.05093 0,-8.28641 1.51917,0 1.51917,0 0,7.04345 0,7.04344 3.31457,0 3.31456,0 0,1.24296 0,1.24297 -4.83374,0 -4.83373,0 0,-8.28641 z"
           id="path3388"
           inkscape:connector-curvature="0"
           transform="translate(12.314018,14.934338)" />
        <path
           style="fill:#ffffff"
           d="m 342.04481,310.78236 c 0.0191,-3.13636 -0.44992,-4.67024 -3.01952,-9.87464 -1.0126,-2.05088 -1.88688,-3.82836 -1.94284,-3.94994 -0.056,-0.12158 0.68755,-0.18373 1.65224,-0.1381 l 1.75399,0.0829 0.83223,1.65728 c 0.45772,0.9115 1.17342,2.458 1.59043,3.43665 0.53029,1.24449 0.84553,1.69205 1.04869,1.4889 0.15976,-0.15977 0.77131,-1.45767 1.359,-2.88423 1.3829,-3.35684 1.81051,-3.83671 3.41886,-3.83671 0.68615,0 1.32219,0.12076 1.41341,0.26836 0.0912,0.1476 -0.83316,2.13689 -2.05418,4.42063 -2.47906,4.63673 -2.75827,5.51976 -2.76795,8.75383 -0.009,3.07159 -0.0432,3.13 -1.821,3.13 l -1.47894,0 0.0156,-2.55498 z"
           id="path3390"
           inkscape:connector-curvature="0"
           transform="translate(12.314018,14.934338)" />
        <path
           style="fill:#ffffff"
           d="m 396.14572,306.6078 0,-8.73843 1.58823,0.007 c 2.87914,0.0136 6.61509,0.48779 7.51696,0.95417 0.57559,0.29764 1.07688,0.88808 1.42809,1.68206 0.65965,1.49126 0.43127,2.63726 -0.83066,4.16821 l -0.8402,1.01931 0.98179,1.08673 c 2.04134,2.25952 2.24773,4.62666 0.56189,6.44425 -1.03955,1.12077 -2.99023,1.61787 -7.54647,1.92307 l -2.85963,0.19156 0,-8.73842 z m 6.31752,5.87184 c 0.48163,-0.1679 0.99736,-0.53261 1.14607,-0.81048 0.48898,-0.91366 0.3111,-2.39689 -0.38443,-3.2055 -0.55979,-0.65079 -0.87045,-0.76326 -2.14066,-0.77499 l -1.48583,-0.0137 -0.0811,1.99826 c -0.0446,1.09904 0.053,2.24878 0.21688,2.55497 0.33874,0.63294 1.36378,0.72738 2.72904,0.25145 z m -0.91451,-7.86297 c 1.58574,-0.75018 1.99687,-1.42038 1.67007,-2.72247 -0.12701,-0.50603 -0.55229,-0.81445 -1.73134,-1.25559 -0.85963,-0.32163 -1.72956,-0.52085 -1.93318,-0.44272 -0.61347,0.23541 -0.38881,5.13125 0.23546,5.13125 0.14145,0 0.93299,-0.31971 1.75899,-0.71047 z"
           id="path3392"
           inkscape:connector-curvature="0"
           transform="translate(12.314018,14.934338)" />
        <path
           style="fill:#ffffff"
           d="m 410.78504,306.70821 0,-8.28641 4.83374,0 c 5.25284,0 5.00304,-0.087 4.6611,1.62276 l -0.17263,0.86316 -3.00383,0 -3.00382,0 0,1.9335 0,1.93349 3.03835,0 3.03835,0 0,1.38107 0,1.38107 -3.03835,0 -3.03835,0 0,2.34782 0,2.34781 3.31456,0 3.31457,0 0,1.38107 0,1.38107 -4.97185,0 -4.97184,0 0,-8.28641 z"
           id="path3394"
           inkscape:connector-curvature="0"
           transform="translate(12.314018,14.934338)" />
        <path
           style="fill:#ffffff"
           d="m 427.81136,311.99854 c -0.23207,-3.82098 -0.58084,-4.95041 -2.95036,-9.55417 -1.06726,-2.07358 -1.86695,-3.88909 -1.77711,-4.03446 0.0899,-0.14538 0.76849,-0.26432 1.50808,-0.26432 1.66759,0 2.04154,0.41722 3.47626,3.87861 0.56326,1.3589 1.17831,2.59871 1.36678,2.75513 0.26009,0.21585 0.62282,-0.37949 1.50504,-2.4702 1.43004,-3.38898 2.08632,-4.16508 3.51711,-4.15931 0.57695,0.002 1.19099,0.0956 1.36454,0.20716 0.21339,0.13723 -0.49041,1.67841 -2.17393,4.76045 l -2.48948,4.55753 -0.144,3.65983 -0.144,3.65983 -1.43848,0 -1.43848,0 -0.18197,-2.99608 z"
           id="path3396"
           inkscape:connector-curvature="0"
           transform="translate(12.314018,14.934338)" />
        <path
           style="fill:#ffffff"
           d="m 442.47157,314.97962 c -1.56797,-0.38467 -2.48014,-0.93524 -3.59628,-2.17068 -1.76116,-1.94939 -2.50226,-4.70189 -2.08583,-7.7469 0.71783,-5.24886 5.16299,-8.24737 10.06037,-6.78628 1.92167,0.57332 3.25675,1.7903 4.30911,3.92796 0.80693,1.63912 0.8997,2.07493 0.89453,4.20243 -0.005,2.01242 -0.12584,2.63883 -0.79466,4.11608 -0.90516,1.99922 -2.59776,3.6614 -4.20439,4.12883 -1.64804,0.47948 -3.44308,0.60817 -4.58285,0.32856 z m 4.05402,-3.11699 c 0.35221,-0.23077 0.93345,-1.01882 1.29164,-1.7512 1.4715,-3.0087 0.4322,-8.14448 -1.84029,-9.09398 -3.24722,-1.35678 -5.64254,0.95006 -5.62223,5.41455 0.0144,3.15448 0.801,4.87408 2.60921,5.70373 0.97587,0.44775 2.65841,0.31874 3.56167,-0.2731 z"
           id="path3398"
           inkscape:connector-curvature="0"
           transform="translate(12.314018,14.934338)" />
        <path
           style="fill:#ffffff"
           d="m 465.04361,314.79965 c -0.853,-0.853 -2.19944,-3.14176 -4.43506,-7.53901 l -2.17667,-4.28131 -0.0744,6.00764 -0.0744,6.00765 -1.65189,0 -1.6519,0 0,-7.0049 c 0,-3.85269 0.079,-7.58132 0.17558,-8.28585 0.16721,-1.21995 0.22969,-1.29558 1.31201,-1.58808 2.05876,-0.55639 2.8822,0.36636 6.55844,7.34946 l 2.03577,3.86699 0.17984,-1.51918 c 0.0989,-0.83554 0.19214,-3.29039 0.20716,-5.45521 l 0.0273,-3.93605 1.24296,0 1.24296,0 0,8.132 c 0,4.4726 -0.0932,8.18516 -0.20716,8.25013 -0.11394,0.065 -0.66105,0.19994 -1.21581,0.29994 -0.7674,0.13832 -1.1249,0.0656 -1.49467,-0.30422 z"
           id="path3400"
           inkscape:connector-curvature="0"
           transform="translate(12.314018,14.934338)" />
        <path
           style="fill:#ffffff"
           d="m 472.18153,306.956 c 0.0901,-4.72508 0.22661,-8.65374 0.30323,-8.73036 0.0766,-0.0766 1.66932,-0.14817 3.53933,-0.15899 4.1052,-0.0238 6.08372,0.46384 7.65973,1.88767 1.57845,1.42603 2.33338,3.37245 2.35172,6.06336 0.031,4.54658 -1.54318,7.10015 -5.01178,8.12997 -1.48621,0.44125 -7.47315,1.39939 -8.7441,1.39939 -0.16316,0 -0.20019,-3.24206 -0.0981,-8.59104 z m 7.03419,5.12784 c 2.1741,-0.9084 3.09316,-2.53222 3.10257,-5.48169 0.008,-2.49465 -0.43628,-3.88327 -1.55718,-4.86743 -1.72446,-1.5141 -4.62513,-1.81768 -5.26267,-0.55078 -0.47739,0.94867 -0.49844,10.51903 -0.0242,10.9933 0.46447,0.46447 2.52967,0.41292 3.74146,-0.0934 z"
           id="path3402"
           inkscape:connector-curvature="0"
           transform="translate(12.314018,14.934338)" />
        <path
           style="fill:#ffffff"
           d="m 504.36154,305.60335 0,-8.2864 4.83374,0 4.83373,0 0,1.24296 0,1.24296 -3.03835,0 -3.03834,0 0,1.93349 0,1.9335 2.76213,0 2.76214,0 0,1.37581 c 0,1.24582 -0.0668,1.39257 -0.70722,1.5533 -0.38897,0.0976 -1.20438,0.11082 -1.81202,0.0293 -1.24342,-0.16678 -2.71595,0.16937 -3.05044,0.69635 -0.12229,0.19268 -0.22425,1.05513 -0.22658,1.91656 l -0.004,1.56624 1.72634,0.16446 c 0.94948,0.0904 2.47211,0.19356 3.38361,0.22914 l 1.65728,0.0647 0.0842,1.31202 0.0842,1.31201 -5.12509,0 -5.12508,0 0,-8.28641 z"
           id="path3404"
           inkscape:connector-curvature="0"
           transform="translate(12.314018,14.934338)" />
        <path
           style="fill:#ffffff"
           d="m 517.27452,313.71147 c -0.26585,-0.0761 -0.48337,-0.18509 -0.48337,-0.24212 0,-0.057 0.81803,-1.75699 1.81784,-3.77769 2.18462,-4.41527 2.18461,-4.4082 0.009,-8.79396 -0.85287,-1.7193 -1.55067,-3.27597 -1.55067,-3.45927 0,-0.33381 0.83777,-0.66306 1.70515,-0.67014 0.91146,-0.007 2.18651,1.46189 3.30843,3.81255 l 1.13368,2.37528 1.15732,-2.47432 c 1.43371,-3.0652 1.79362,-3.44229 3.28032,-3.43684 1.98797,0.007 1.98957,0.14447 0.0417,3.59749 -2.48507,4.40543 -2.45959,4.96811 0.45332,10.00998 0.89423,1.54779 1.62587,2.90938 1.62587,3.02575 0,0.11637 -0.79729,0.21158 -1.77176,0.21158 l -1.77176,0 -1.56589,-3.06129 c -0.86124,-1.68372 -1.61892,-3.00828 -1.68373,-2.94347 -0.0648,0.0648 -0.65669,1.22488 -1.3153,2.57793 -0.6586,1.35305 -1.39202,2.62147 -1.62982,2.81872 -0.48418,0.40162 -2.02247,0.64115 -2.76041,0.42982 z"
           id="path3406"
           inkscape:connector-curvature="0"
           transform="translate(12.314018,14.934338)" />
        <path
           style="fill:#ffffff"
           d="m 532.81154,305.59652 0,-8.29325 0.75959,-0.29755 c 0.45866,-0.17967 1.92815,-0.2452 3.70925,-0.16541 4.51328,0.20219 5.9672,1.09112 6.5984,4.03428 0.3379,1.57559 -0.003,3.26685 -0.91747,4.55104 -0.85722,1.20385 -3.04137,2.10529 -5.10887,2.10852 l -1.72634,0.003 0,3.17646 0,3.17645 -1.65728,0 -1.65728,0 0,-8.29324 z m 5.68687,-0.83491 c 0.87787,-0.328 2.04724,-1.87176 2.04608,-2.70117 -10e-4,-1.02569 -0.95393,-2.48564 -1.75242,-2.68605 -2.2178,-0.55663 -3.04501,0.4021 -2.83304,3.28346 0.19749,2.68444 0.44232,2.88727 2.53938,2.10376 z"
           id="path3408"
           inkscape:connector-curvature="0"
           transform="translate(12.314018,14.934338)" />
        <path
           style="fill:#ffffff"
           d="m 546.96343,305.5343 0.0731,-8.35546 4.76468,-0.0756 4.76469,-0.0756 0,1.37824 0,1.37825 -2.9693,0.0784 -2.9693,0.0784 -0.081,1.83393 -0.081,1.83394 2.84311,0.23766 2.84312,0.23767 0.0879,0.91574 c 0.13839,1.44179 -0.28037,1.70829 -2.68429,1.70829 -2.78723,0 -3.34221,0.36577 -3.34221,2.20278 0,2.26998 -0.0871,2.21664 3.62033,2.21664 l 3.28501,0 0,1.38106 0,1.38107 -5.114,0 -5.114,0 0.0731,-8.35546 z"
           id="path3410"
           inkscape:connector-curvature="0"
           transform="translate(12.314018,14.934338)" />
        <path
           style="fill:#ffffff"
           d="m 565.16907,313.86903 c -3.63055,-0.71382 -5.9113,-3.78711 -5.91793,-7.97438 -0.002,-1.14768 0.14072,-2.60342 0.31677,-3.235 0.48869,-1.75326 1.94848,-3.70919 3.46609,-4.64412 1.24323,-0.76589 1.60111,-0.8447 4.22943,-0.93138 1.5792,-0.0521 3.18123,-0.0169 3.56008,0.0782 0.61688,0.15483 0.67998,0.2945 0.60431,1.33765 l -0.0845,1.16477 -2.62733,0.30418 c -3.94788,0.45706 -5.29878,1.38232 -5.84034,4.00019 -0.23625,1.14201 -0.22767,1.88542 0.0363,3.14089 0.57448,2.7328 2.0178,3.63251 6.31392,3.93584 l 2.30193,0.16253 -0.18635,0.99331 c -0.24734,1.31847 -0.27204,1.34687 -1.45819,1.67629 -1.19086,0.33074 -3.00397,0.32729 -4.71416,-0.009 z"
           id="path3412"
           inkscape:connector-curvature="0"
           transform="translate(12.314018,14.934338)" />
        <path
           style="fill:#ffffff"
           d="m 578.11057,306.98442 0,-6.90534 -2.20971,0 -2.20971,0 0,-1.52456 0,-1.52456 6.00764,0.0744 6.00765,0.0744 0,1.38107 0,1.38107 -2.14066,0.0807 -2.14065,0.0807 0,6.89372 0,6.89372 -1.65728,0 -1.65728,0 0,-6.90534 z"
           id="path3414"
           inkscape:connector-curvature="0"
           transform="translate(12.314018,14.934338)" />
        <path
           style="fill:#ffffff"
           d="m 596.62834,313.3488 c -0.29753,-0.29754 -0.79125,-1.03156 -1.09715,-1.63118 -0.68304,-1.33886 -1.70812,-2.17637 -2.94865,-2.40909 -1.35849,-0.25486 -2.22832,0.43879 -3.17872,2.53484 l -0.80264,1.77018 -1.51642,0 c -0.83404,0 -1.51643,-0.0606 -1.51643,-0.13475 0,-0.27164 3.56784,-12.50969 4.19092,-14.37526 l 0.64282,-1.9247 1.8521,-0.0814 c 2.42361,-0.10651 2.67549,0.15994 3.90726,4.13323 2.84847,9.18823 3.61075,12.13973 3.20207,12.3983 -0.69682,0.44088 -2.16445,0.29053 -2.73516,-0.28018 z m -2.9343,-6.80825 c 0.2403,-0.0922 0.43849,-0.43403 0.44041,-0.75959 0.005,-0.79825 -1.42016,-5.42566 -1.67067,-5.42566 -0.31625,0 -1.74524,5.42328 -1.55774,5.91191 0.1736,0.45238 1.88435,0.62011 2.788,0.27334 z"
           id="path3416"
           inkscape:connector-curvature="0"
           transform="translate(12.314018,14.934338)" />
        <path
           style="fill:#ffffff"
           d="m 603.75129,307.25026 c -0.10194,-7.44015 0.0487,-6.9526 -2.30068,-7.44739 -1.82432,-0.38421 -1.98698,-0.51103 -2.21509,-1.72697 l -0.1942,-1.03517 6.10744,0 6.10744,0 0,1.38107 0,1.38107 -2.07161,0 -2.0716,0 0,7.04345 0,7.04344 -1.63537,0 -1.63537,0 -0.091,-6.6395 z"
           id="path3418"
           inkscape:connector-curvature="0"
           transform="translate(12.314018,14.934338)" />
        <path
           style="fill:#ffffff"
           d="m 578.26084,306.98442 0,-6.90534 -2.34782,0 -2.34782,0 0,-1.51917 0,-1.51918 6.0767,0 6.0767,0 0,1.51918 0,1.51917 -2.0716,0 -2.0716,0 0,6.90534 0,6.90534 -1.65728,0 -1.65728,0 0,-6.90534 z"
           id="path3420"
           inkscape:connector-curvature="0"
           transform="translate(12.314018,14.934338)" />
        <path
           style="fill:#ffffff"
           d="m 596.57139,313.26828 c -0.31255,-0.34181 -0.76478,-1.01064 -1.00497,-1.48627 -0.57197,-1.13264 -1.88316,-2.21711 -2.96896,-2.45559 -1.20078,-0.26373 -2.11895,0.46748 -3.14997,2.50857 l -0.82864,1.64045 -1.58481,0.0827 c -1.20537,0.0629 -1.55528,-0.003 -1.46146,-0.27622 0.0678,-0.19742 0.74416,-2.53413 1.50293,-5.19268 2.00289,-7.01772 3.02767,-10.25943 3.37586,-10.67898 0.42837,-0.51615 3.26615,-0.48484 4.0217,0.0444 0.65975,0.46211 1.41473,2.595 3.80664,10.75417 1.66756,5.68834 1.66809,5.6689 -0.1524,5.67669 -0.67548,0.003 -1.16727,-0.1922 -1.55592,-0.61725 z m -2.74727,-6.90895 c 0.44811,-0.32767 0.43378,-0.49846 -0.23565,-2.80852 -0.39203,-1.3528 -0.82321,-2.65628 -0.95818,-2.89663 -0.30225,-0.5382 -0.30202,-0.53876 -1.21661,2.91876 -0.48648,1.83912 -0.58569,2.6099 -0.3644,2.83119 0.41338,0.41338 2.18742,0.38473 2.77484,-0.0448 z"
           id="path3422"
           inkscape:connector-curvature="0"
           transform="translate(12.314018,14.934338)" />
        <path
           style="fill:#ffffff"
           d="m 603.67249,307.69294 c 0,-3.40826 -0.11433,-6.49752 -0.25406,-6.86505 -0.20532,-0.54001 -0.56639,-0.72966 -1.88203,-0.9885 -1.93021,-0.37975 -2.28333,-0.67243 -2.28333,-1.89254 l 0,-0.91689 6.00764,0.0744 6.00765,0.0744 0.0837,1.30013 0.0837,1.30013 -2.1553,0.0809 -2.1553,0.0809 -0.0738,6.97439 -0.0738,6.97439 -1.65254,0 -1.65253,0 0,-6.19682 z"
           id="path3424"
           inkscape:connector-curvature="0"
           transform="translate(12.314018,14.934338)" />
        <path
           style="fill:#ffffff"
           d="m 614.1686,305.60335 0,-8.2864 1.51918,0 1.51917,0 0,8.2864 0,8.28641 -1.51917,0 -1.51918,0 0,-8.28641 z"
           id="path3426"
           inkscape:connector-curvature="0"
           transform="translate(12.314018,14.934338)" />
        <path
           style="fill:#ffffff"
           d="m 625.75592,313.79799 c -3.62056,-1.00013 -5.51062,-3.80548 -5.51062,-8.17923 0,-2.82735 0.56456,-4.60947 1.96384,-6.19913 1.34968,-1.53331 2.22585,-2.02791 4.25784,-2.40354 3.14816,-0.58197 6.0674,0.57006 7.61057,3.00338 1.09193,1.72179 1.42941,3.06721 1.43648,5.7266 0.007,2.58285 -0.55265,4.13111 -2.11977,5.86572 -1.74263,1.92888 -5.09568,2.88857 -7.63834,2.1862 z m 4.21758,-2.97908 c 0.29919,-0.16011 0.87321,-0.99516 1.27561,-1.85564 1.02181,-2.18501 1.04046,-5.12976 0.0447,-7.06358 -1.62424,-3.15448 -5.28109,-3.15448 -6.90534,0 -0.56974,1.10652 -0.68967,1.7289 -0.68561,3.55818 0.007,3.19111 1.07686,5.21347 3.04494,5.75627 0.71106,0.19612 2.5393,-0.0279 3.22567,-0.39523 z"
           id="path3428"
           inkscape:connector-curvature="0"
           transform="translate(12.314018,14.934338)" />
        <path
           style="fill:#ffffff"
           d="m 638.4754,305.65164 0,-8.28995 1.28786,-0.27468 c 1.58558,-0.33817 2.31735,-0.0844 3.20265,1.11048 0.72311,0.976 2.75865,4.56135 4.51822,7.95829 l 1.07306,2.0716 0.17202,-3.03835 c 0.0946,-1.67109 0.18784,-4.18808 0.20716,-5.59332 l 0.0351,-2.55498 1.24297,0 1.24296,0 0,7.98761 c 0,4.39318 -0.0755,8.18421 -0.16766,8.42451 -0.11446,0.29827 -0.52044,0.43691 -1.2794,0.43691 -1.62993,0 -2.4895,-1.08318 -5.35374,-6.74646 -1.3488,-2.66689 -2.52685,-4.85016 -2.61789,-4.8517 -0.091,-0.002 -0.23499,2.4924 -0.31987,5.5421 -0.0849,3.0497 -0.19684,5.58372 -0.24879,5.63115 -0.052,0.0474 -0.747,0.1741 -1.54457,0.28149 l -1.45012,0.19526 0,-8.28996 z"
           id="path3430"
           inkscape:connector-curvature="0"
           transform="translate(12.314018,14.934338)" />
        <path
           transform="translate(12.314018,14.934338)"
           inkscape:connector-curvature="0"
           id="path3557"
           d="m 460.97351,189.77911 c -5.45111,-13.67998 -13.71272,-27.46758 -23.46,-39.15186 -13.16873,-15.78565 -30.11833,-29.20563 -49.54668,-39.229 -5.47399,-2.82412 -15.89124,-7.38216 -19.93073,-8.72065 -0.51757,-0.1715 -0.91217,-0.34068 -0.87689,-0.37596 0.21822,-0.21823 9.55156,2.49369 15.08581,4.38337 17.9959,6.14471 34.98309,15.44676 49.63977,27.18235 5.07181,4.061 8.56974,7.19551 13.2659,11.88762 10.34397,10.33506 18.63091,21.33198 25.90837,34.38085 1.43828,2.57892 4.97081,9.54476 5.48671,10.81933 l 0.20963,0.5179 -7.5543,-0.002 -7.5543,-0.002 -0.67329,-1.68967 0,0 z"
           style="fill:#ffffff" />
      </g>
    </g>
  </g>
</svg>
