<?xml version="1.0" encoding="utf-8"?>
<!-- Generator: Adobe Illustrator 19.1.0, SVG Export Plug-In . SVG Version: 6.00 Build 0)  -->
<svg version="1.1" id="Layer_1" xmlns="http://www.w3.org/2000/svg" xmlns:xlink="http://www.w3.org/1999/xlink" x="0px" y="0px"
	 width="300px" height="61.5px" viewBox="-149 270.5 300 61.5" style="enable-background:new -149 270.5 300 61.5;"
	 xml:space="preserve">
<style type="text/css">
	.st0{fill:#E41D36;}
	.st1{fill:#181716;}
</style>
<g>
	<path class="st0" d="M105,330.3h37.3c-4.8-3.7-11.4-6-18.6-6C116.3,324.3,109.7,326.6,105,330.3 M124.6,272.8
		c-0.2-0.4-0.5-0.6-1-0.6h-0.4c-0.4,0-0.8,0.2-1,0.6c-5.9,12.1-28.1,20.2-26.3,35.8c1.7,14.3,18.6,17,26.5,9.1
		c-3.5-6.7-15.5-11.3-14.5-19.9c1-8.4,13.6-8.8,15.5-0.4c1.9-8.4,14.5-8,15.5,0.4c1,8.7-11,13.2-14.5,19.9
		c7.9,7.9,24.8,5.2,26.5-9.1C152.7,293,130.5,284.9,124.6,272.8z"/>
	<g>
		<g>
			<path class="st1" d="M-126.3,312.1c-0.6,1.2-1.3,2.2-2.2,3.1c-1.1,1-2.3,1.8-3.8,2.3c-0.7,0.2-1.5,0.5-2.3,0.6
				c-0.8,0.2-1.6,0.2-2.4,0.2s-1.7-0.1-2.4-0.2c-0.8-0.2-1.5-0.4-2.3-0.6c-0.7-0.3-1.4-0.6-2-1s-1.2-0.8-1.7-1.4
				c-0.5-0.5-1-1.1-1.5-1.8c-0.5-0.6-0.8-1.3-1.1-2.1c-0.7-1.6-1-3.3-1-5.1v-8.5c0-1.9,0.3-3.6,1-5.1c0.3-0.7,0.6-1.4,1.1-2.1
				c0.5-0.6,0.9-1.2,1.5-1.8c0.5-0.5,1.1-1,1.7-1.4s1.3-0.7,2-1.1c0.8-0.3,1.5-0.5,2.3-0.7s1.6-0.2,2.4-0.2c1.6,0,3.1,0.3,4.6,0.9
				c0.7,0.3,1.4,0.7,2,1.1c0.6,0.4,1.2,0.9,1.8,1.4c0.6,0.6,1.2,1.2,1.6,2l-0.2,0.2l-4.3,2.1l-0.1,0.1c-0.2-0.3-0.4-0.6-0.7-0.9
				c-0.3-0.3-0.7-0.6-1-0.8c-0.4-0.2-0.7-0.4-1.1-0.6c-0.8-0.3-1.6-0.5-2.7-0.5c-1,0-1.9,0.2-2.7,0.5c-0.4,0.2-0.8,0.4-1.1,0.6
				c-0.3,0.2-0.7,0.5-1,0.8c-0.5,0.6-1,1.4-1.4,2.4c-0.3,1-0.5,2.2-0.5,3.6v7.4c0,1.3,0.2,2.5,0.5,3.6c0.2,0.5,0.4,1,0.6,1.4
				s0.5,0.7,0.8,1.1c0.3,0.3,0.7,0.5,1,0.8s0.7,0.5,1.1,0.6c0.8,0.3,1.7,0.5,2.7,0.5s1.9-0.2,2.7-0.5c0.4-0.2,0.8-0.4,1.1-0.6
				c0.4-0.2,0.7-0.5,1-0.8s0.6-0.7,0.8-1.2l0.2,0.1l4.5,1.4L-126.3,312.1"/>
			<path class="st1" d="M-105.3,313.3c-0.5,1-1.2,1.9-2,2.6c-0.8,0.7-1.8,1.3-3,1.7c-1.1,0.4-2.3,0.6-3.6,0.6
				c-1.3,0-2.5-0.2-3.6-0.6c-1.1-0.4-2.1-1-3-1.7s-1.5-1.6-2-2.6s-0.8-2.1-0.8-3.3c0-2.5,0.8-4.4,2.4-5.8c1.6-1.3,3.8-2,6.5-2h4.5
				v-0.1c0-3.1-1.3-4.7-4-4.7c-1.1,0-2.2,0.1-3.4,0.4c-1.2,0.3-2.3,0.5-3.4,0.8l-1.2-4.5c1.6-0.5,3-0.8,4.2-1.1
				c1.2-0.2,2.5-0.4,3.7-0.4c1.4,0,2.7,0.2,3.8,0.6c1.2,0.4,2.1,1,2.9,1.8s1.4,1.8,1.9,2.9s0.7,2.5,0.7,3.9v8
				C-104.5,311.2-104.8,312.3-105.3,313.3 M-109.9,306h-4.5c-0.7,0-1.2,0.1-1.7,0.4c-0.5,0.2-0.8,0.5-1.1,0.9
				c-0.3,0.4-0.5,0.8-0.6,1.2c-0.1,0.5-0.2,0.9-0.2,1.4c0,0.4,0.1,0.8,0.3,1.3c0.2,0.4,0.5,0.8,0.8,1.2c0.3,0.3,0.8,0.6,1.3,0.8
				s1.1,0.3,1.7,0.3c1.2,0,2.2-0.4,2.9-1.1c0.7-0.7,1.1-1.6,1.1-2.4L-109.9,306L-109.9,306z"/>
			<path class="st1" d="M-86.9,297.8c-0.4-0.1-0.9-0.1-1.5-0.3c-0.6-0.1-1.1-0.2-1.5-0.2c-1.3,0-2.4,0.4-3.2,1.2
				c-0.8,0.8-1.2,1.9-1.2,3.4v15.8h-5.3v-15.8c0-1.4,0.3-2.7,0.8-3.8s1.2-2.1,2.1-2.9s1.9-1.4,3.1-1.9c1.2-0.4,2.5-0.7,3.8-0.7
				c0.4,0,1,0,1.6,0.1s1.4,0.2,2.4,0.4L-86.9,297.8"/>
			<polyline class="st1" points="-74.2,297.4 -74.2,317.8 -79.6,317.8 -79.6,297.4 -82.6,297.4 -83.8,293.1 -79.6,293.1 -79.6,287 
				-74.2,285.8 -74.2,293.1 -69.3,293.1 -69.3,297.4 -74.2,297.4 			"/>
			<path class="st1" d="M-48.2,313.3c-0.5,1-1.2,1.9-2,2.6c-0.8,0.7-1.8,1.3-3,1.7c-1.1,0.4-2.3,0.6-3.6,0.6s-2.5-0.2-3.6-0.6
				c-1.1-0.4-2.1-1-3-1.7c-0.9-0.7-1.5-1.6-2-2.6s-0.8-2.1-0.8-3.3c0-2.5,0.8-4.4,2.4-5.8c1.6-1.3,3.8-2,6.5-2h4.5v-0.1
				c0-3.1-1.3-4.7-4-4.7c-1.1,0-2.2,0.1-3.4,0.4c-1.2,0.3-2.3,0.5-3.4,0.8l-1.2-4.5c1.6-0.5,3-0.8,4.2-1.1c1.2-0.2,2.5-0.4,3.7-0.4
				c1.4,0,2.7,0.2,3.8,0.6c1.2,0.4,2.1,1,2.9,1.8s1.4,1.8,1.9,2.9s0.7,2.5,0.7,3.9v8C-47.5,311.2-47.7,312.3-48.2,313.3 M-52.8,306
				h-4.5c-0.7,0-1.2,0.1-1.7,0.4c-0.5,0.2-0.8,0.5-1.1,0.9c-0.3,0.4-0.5,0.8-0.6,1.2c-0.1,0.5-0.2,0.9-0.2,1.4
				c0,0.4,0.1,0.8,0.3,1.3c0.2,0.4,0.5,0.8,0.8,1.2c0.3,0.3,0.8,0.6,1.3,0.8s1.1,0.3,1.7,0.3c1.2,0,2.2-0.4,2.9-1.1s1.1-1.6,1.1-2.4
				L-52.8,306L-52.8,306z"/>
			<path class="st1" d="M-15.4,317.8v-15.3c0-1.7-0.4-3-1.1-3.8s-1.7-1.3-2.9-1.3s-2.1,0.4-2.9,1.3c-0.8,0.8-1.2,2.1-1.2,3.8v15.3
				h-5.3v-15.3c0-1.7-0.4-3-1.2-3.8c-0.8-0.8-1.7-1.3-2.9-1.3c-1.2,0-2.1,0.4-2.9,1.3c-0.8,0.8-1.1,2.1-1.1,3.8v15.3h-5.3V302
				c0-1.4,0.2-2.6,0.7-3.8c0.5-1.1,1.2-2.1,2-2.9c0.8-0.8,1.8-1.4,3-1.9c1.1-0.5,2.3-0.7,3.6-0.7c1.3,0,2.6,0.3,3.7,0.8
				c1.2,0.6,2.2,1.6,3,3c0.9-1.4,1.9-2.4,3.1-3s2.4-0.8,3.7-0.8c1.3,0,2.5,0.2,3.6,0.7s2.1,1.1,3,1.9c0.8,0.8,1.5,1.8,2,2.9
				s0.7,2.4,0.7,3.7v15.8L-15.4,317.8"/>
			<path class="st1" d="M14.4,312.7c-0.5,1.1-1.2,2.1-2.1,3c-0.9,0.8-1.9,1.5-3.1,1.9c-1.2,0.5-2.4,0.7-3.8,0.7
				c-1.3,0-2.6-0.2-3.8-0.7s-2.2-1.1-3.1-1.9s-1.6-1.8-2.1-3c-0.5-1.1-0.8-2.4-0.8-3.7v-15.8h5.3v15.7c0,1.4,0.4,2.5,1.2,3.3
				c0.8,0.8,1.9,1.3,3.2,1.3s2.3-0.4,3.2-1.3c0.8-0.9,1.2-2,1.2-3.3v-15.8H15v15.8C15.1,310.3,14.9,311.5,14.4,312.7"/>
			<path class="st1" d="M35,317.8V302c0-1.4-0.4-2.5-1.2-3.3c-0.8-0.8-1.9-1.2-3.2-1.2s-2.4,0.4-3.2,1.2c-0.8,0.8-1.2,1.9-1.2,3.3
				v15.8h-5.3V302c0-1.4,0.3-2.6,0.8-3.8c0.5-1.1,1.2-2.1,2.1-2.9c0.9-0.8,1.9-1.4,3.1-1.9s2.5-0.7,3.8-0.7s2.6,0.2,3.8,0.7
				s2.2,1.1,3.1,1.9c0.9,0.8,1.6,1.8,2.1,2.9s0.8,2.4,0.8,3.8v15.8H35"/>
			<path class="st1" d="M64.3,312.5c-0.5,1.2-1.2,2.2-2.1,3s-1.9,1.5-3.1,2s-2.4,0.7-3.8,0.7c-1.3,0-2.6-0.2-3.8-0.7
				c-1.2-0.5-2.2-1.1-3.1-2c-0.9-0.8-1.6-1.8-2.1-3s-0.8-2.4-0.8-3.8v-6.6c0-1.5,0.3-2.8,0.8-4s1.2-2.2,2.1-3s1.9-1.4,3.1-1.9
				c1.2-0.4,2.5-0.7,3.8-0.7c0.9,0,1.7,0.1,2.4,0.3s1.4,0.4,2,0.6v-9.1H65v24.4C65,310.1,64.8,311.4,64.3,312.5 M59.7,298.3
				c-0.6-0.3-1.3-0.5-2-0.6c-0.7-0.2-1.5-0.3-2.4-0.3c-1.3,0-2.4,0.4-3.2,1.2c-0.8,0.8-1.2,2-1.2,3.6v6.6c0,1.4,0.4,2.5,1.3,3.4
				c0.8,0.9,1.9,1.3,3.2,1.3c1.3,0,2.3-0.4,3.2-1.3c0.8-0.9,1.2-2,1.2-3.4L59.7,298.3L59.7,298.3z"/>
			<path class="st1" d="M71.2,284.5h5.3v5.3h-5.3V284.5z M71.2,293.1h5.3v24.7h-5.3V293.1z"/>
		</g>
	</g>
</g>
</svg>
